<svg width="55" height="62" viewBox="0 0 55 62" fill="none" xmlns="http://www.w3.org/2000/svg">
<path d="M12.5298 36.3338C15.385 35.2895 18.518 35.4667 21.5025 35.2751C28.7219 35.2991 36.0611 34.6859 43.1895 36.1853C42.8781 37.359 42.8876 38.7579 42.6098 39.9843C35.673 41.4118 28.5447 40.9759 21.5121 41.0621C18.0773 40.8801 14.3981 41.5891 11.2363 39.9124L11.9454 39.8405C16.7551 40.2813 21.5744 40.3579 26.4033 40.2525C31.0118 40.128 35.6635 40.2669 40.248 39.6298C40.8996 39.3423 41.5415 39.0261 42.1882 38.7147C42.1164 38.3459 41.9774 37.6081 41.9056 37.2441C35.788 36.6884 29.6465 36.5734 23.5194 36.5015C20.669 36.5111 17.7994 35.9985 14.973 36.3961C13.349 36.6692 12.3861 38.1159 11.5669 39.3998L11.3226 39.7735C11.6339 38.6046 11.7298 37.292 12.5298 36.3338Z" fill="#F9A0AE"/>
<path d="M14.973 36.3965C17.7994 35.9989 20.669 36.5114 23.5194 36.5019C19.615 37.4504 15.8257 38.8061 11.9454 39.8409L11.2363 39.9127L11.5669 39.4002C12.3861 38.1163 13.349 36.6695 14.973 36.3965Z" fill="#FBA6A2"/>
<path d="M11.9453 39.841C15.8257 38.8062 19.615 37.4505 23.5193 36.502C29.6465 36.5738 35.788 36.6888 41.9055 37.2445C41.9774 37.6086 42.1163 38.3463 42.1882 38.7152C41.5414 39.0266 40.8995 39.3428 40.248 39.6302C40.3726 39.1272 40.5067 38.629 40.6456 38.1356C33.546 38.3368 26.4607 38.8302 19.3899 39.4386C21.7181 39.7452 24.0511 40.0661 26.4033 40.253C21.5744 40.3584 16.755 40.2817 11.9453 39.841Z" fill="#FDAFA9"/>
<path d="M19.3906 39.4378C26.4615 38.8294 33.5468 38.336 40.6464 38.1348C40.5075 38.6282 40.3733 39.1264 40.2488 39.6294C35.6642 40.2666 31.0126 40.1276 26.404 40.2522C24.0519 40.0654 21.7188 39.7444 19.3906 39.4378Z" fill="#FDB9B3"/>
<path d="M2.55501 54.0155C7.34991 52.2617 12.6114 52.5593 17.6235 52.2375C29.7475 52.2777 42.0727 51.248 54.0439 53.7661C53.5209 55.7372 53.537 58.0863 53.0704 60.1459C41.421 62.5433 29.4499 61.8112 17.6396 61.9561C11.8713 61.6503 5.6926 62.841 0.382812 60.0252L1.57353 59.9046C9.65084 60.6447 17.7442 60.7734 25.8537 60.5964C33.5931 60.3873 41.4049 60.6206 49.1041 59.5506C50.1983 59.0679 51.2763 58.5369 52.3624 58.0139C52.2417 57.3944 52.0084 56.1555 51.8878 55.5441C41.6141 54.6109 31.3003 54.4178 21.0105 54.2971C16.2237 54.3132 11.4046 53.4524 6.65801 54.1201C3.93071 54.5787 2.31365 57.0083 0.937929 59.1644L0.527619 59.7919C1.05055 57.8289 1.21147 55.6245 2.55501 54.0155Z" fill="#F9A0AE"/>
<path d="M6.65801 54.1194C11.4046 53.4517 16.2237 54.3125 21.0105 54.2964C14.4538 55.8893 8.09008 58.1661 1.57353 59.9039L0.382812 60.0245L0.937929 59.1637C2.31365 57.0076 3.93071 54.578 6.65801 54.1194Z" fill="#FBA6A2"/>
<path d="M1.57227 59.9044C8.08882 58.1666 14.4525 55.8898 21.0093 54.2969C31.299 54.4176 41.6129 54.6107 51.8865 55.5439C52.0072 56.1553 52.2405 57.3942 52.3611 58.0137C51.2751 58.5367 50.197 59.0677 49.1029 59.5504C49.312 58.7056 49.5373 57.8689 49.7706 57.0403C37.8477 57.3782 25.949 58.2068 14.0744 59.2285C17.9843 59.7434 21.9023 60.2825 25.8525 60.5962C17.743 60.7732 9.64958 60.6445 1.57227 59.9044Z" fill="#FDAFA9"/>
<path d="M14.0781 59.2283C25.9527 58.2066 37.8515 57.3779 49.7744 57.04C49.5411 57.8687 49.3158 58.7054 49.1066 59.5501C41.4074 60.6201 33.5956 60.3868 25.8562 60.596C21.9061 60.2822 17.9881 59.7432 14.0781 59.2283Z" fill="#FDB9B3"/>
<path d="M6.94382 1.90915C10.8854 0.467439 15.2105 0.712118 19.3306 0.447584C29.2969 0.480651 39.4286 -0.365842 49.2693 1.70414C48.8394 3.32441 48.8526 5.2555 48.469 6.94852C38.8929 8.9193 29.0522 8.31748 19.3438 8.43652C14.6021 8.18522 9.52302 9.16398 5.1582 6.8493L6.13701 6.75013C12.7768 7.35856 19.4298 7.46436 26.0961 7.31887C32.4581 7.14692 38.8797 7.33871 45.2087 6.45914C46.1081 6.06234 46.9943 5.62583 47.8871 5.19597C47.7879 4.68674 47.5961 3.66832 47.4969 3.1657C39.0516 2.39855 30.5733 2.2398 22.1148 2.1406C18.1799 2.15383 14.2185 1.44622 10.3166 1.99513C8.07468 2.37209 6.74541 4.36933 5.61453 6.14171L5.27724 6.65753C5.70711 5.04387 5.83939 3.23182 6.94382 1.90915Z" fill="#F9A0AE"/>
<path d="M10.3166 1.99509C14.2185 1.44618 18.1799 2.15379 22.1148 2.14056C16.725 3.45001 11.4938 5.32161 6.13701 6.75009L5.1582 6.84927L5.61453 6.14167C6.74541 4.3693 8.07468 2.37205 10.3166 1.99509Z" fill="#FBA6A2"/>
<path d="M6.13672 6.75015C11.4935 5.32167 16.7247 3.45007 22.1146 2.14062C30.573 2.23983 39.0514 2.39858 47.4966 3.16573C47.5958 3.66834 47.7876 4.68676 47.8868 5.19599C46.994 5.62586 46.1078 6.06236 45.2084 6.45916C45.3803 5.76476 45.5655 5.07698 45.7573 4.3958C35.9563 4.67356 26.1752 5.35472 16.4139 6.19461C19.6279 6.61787 22.8487 7.06097 26.0958 7.31889C19.4296 7.46438 12.7765 7.35858 6.13672 6.75015Z" fill="#FDAFA9"/>
<path d="M16.4141 6.19334C26.1754 5.35345 35.9565 4.67229 45.7575 4.39453C45.5657 5.07571 45.3805 5.76349 45.2086 6.45789C38.8796 7.33747 32.4581 7.14567 26.096 7.31762C22.8489 7.0597 19.6282 6.6166 16.4141 6.19334Z" fill="#FDB9B3"/>
<path d="M15.4126 20.3711C17.7072 19.5318 20.2251 19.6743 22.6237 19.5203C28.4256 19.5395 34.3239 19.0467 40.0527 20.2518C39.8025 21.1951 39.8102 22.3193 39.5869 23.3049C34.012 24.4522 28.2832 24.1018 22.6314 24.1711C19.8709 24.0248 16.9141 24.5946 14.373 23.2471L14.9429 23.1894C18.8083 23.5436 22.6814 23.6052 26.5622 23.5205C30.266 23.4204 34.0043 23.532 37.6888 23.02C38.2124 22.789 38.7283 22.5348 39.2481 22.2846C39.1903 21.9881 39.0787 21.3953 39.0209 21.1027C34.1044 20.6561 29.1687 20.5636 24.2445 20.5059C21.9538 20.5136 19.6476 20.1016 17.3761 20.4212C16.0709 20.6406 15.2971 21.8034 14.6387 22.8352L14.4423 23.1355C14.6926 22.1961 14.7696 21.1412 15.4126 20.3711Z" fill="#F9A0AE"/>
<path d="M17.3761 20.4205C19.6476 20.1009 21.9538 20.5129 24.2445 20.5052C21.1068 21.2675 18.0614 22.357 14.9429 23.1886L14.373 23.2464L14.6387 22.8344C15.2971 21.8026 16.0709 20.6399 17.3761 20.4205Z" fill="#FBA6A2"/>
<path d="M14.9414 23.1893C18.0599 22.3577 21.1053 21.2682 24.2431 20.5059C29.1672 20.5636 34.103 20.656 39.0195 21.1026C39.0772 21.3952 39.1889 21.9881 39.2466 22.2846C38.7269 22.5348 38.211 22.7889 37.6874 23.0199C37.7875 22.6157 37.8953 22.2153 38.0069 21.8187C32.3012 21.9804 26.607 22.377 20.9243 22.8659C22.7955 23.1123 24.6704 23.3703 26.5608 23.5204C22.68 23.6051 18.8068 23.5435 14.9414 23.1893Z" fill="#FDAFA9"/>
<path d="M20.9258 22.8656C26.6084 22.3766 32.3026 21.9801 38.0084 21.8184C37.8967 22.2149 37.7889 22.6153 37.6888 23.0196C34.0043 23.5316 30.266 23.42 26.5622 23.5201C24.6719 23.3699 22.7969 23.112 20.9258 22.8656Z" fill="#FDB9B3"/>
</svg>
