<svg width="55" height="63" viewBox="0 0 55 63" fill="none" xmlns="http://www.w3.org/2000/svg">
<path d="M12.5298 57.8788C15.385 56.8344 18.518 57.0117 21.5025 56.82C28.7219 56.844 36.0611 56.2308 43.1895 57.7303C42.8781 58.9039 42.8876 60.3028 42.6098 61.5292C35.673 62.9568 28.5447 62.5208 21.5121 62.6071C18.0773 62.425 14.3981 63.134 11.2363 61.4573L11.9454 61.3855C16.7551 61.8262 21.5744 61.9028 26.4033 61.7975C31.0118 61.6729 35.6635 61.8118 40.248 61.1747C40.8996 60.8872 41.5415 60.5711 42.1882 60.2597C42.1164 59.8908 41.9774 59.1531 41.9056 58.789C35.788 58.2333 29.6465 58.1183 23.5194 58.0464C20.669 58.056 17.7994 57.5434 14.973 57.941C13.349 58.2141 12.3861 59.6609 11.5669 60.9447L11.3226 61.3184C11.6339 60.1495 11.7298 58.8369 12.5298 57.8788Z" fill="#F9A0AE"/>
<path d="M14.973 57.9414C17.7994 57.5438 20.669 58.0564 23.5194 58.0468C19.615 58.9953 15.8257 60.3511 11.9454 61.3858L11.2363 61.4577L11.5669 60.9451C12.3861 59.6612 13.349 58.2145 14.973 57.9414Z" fill="#FBA6A2"/>
<path d="M11.9453 61.3859C15.8257 60.3512 19.615 58.9954 23.5193 58.0469C29.6465 58.1187 35.788 58.2337 41.9055 58.7894C41.9774 59.1535 42.1163 59.8912 42.1882 60.2601C41.5414 60.5715 40.8995 60.8877 40.248 61.1751C40.3726 60.6721 40.5067 60.1739 40.6456 59.6805C33.546 59.8817 26.4607 60.3751 19.3899 60.9835C21.7181 61.2901 24.0511 61.6111 26.4033 61.7979C21.5744 61.9033 16.755 61.8267 11.9453 61.3859Z" fill="#FDAFA9"/>
<path d="M19.3906 60.9827C26.4615 60.3743 33.5468 59.8809 40.6464 59.6797C40.5075 60.1731 40.3733 60.6713 40.2488 61.1743C35.6642 61.8115 31.0126 61.6726 26.404 61.7971C24.0519 61.6103 21.7188 61.2893 19.3906 60.9827Z" fill="#FDB9B3"/>
<path d="M2.55501 2.90809C7.34991 1.15425 12.6114 1.45191 17.6235 1.1301C29.7475 1.17033 42.0727 0.140568 54.0439 2.65869C53.5209 4.62975 53.537 6.97892 53.0704 9.03848C41.421 11.4359 29.4499 10.7038 17.6396 10.8486C11.8713 10.5429 5.6926 11.7336 0.382812 8.91778L1.57353 8.79713C9.65084 9.53729 17.7442 9.666 25.8537 9.489C33.5931 9.27983 41.4049 9.51315 49.1041 8.44315C50.1983 7.96044 51.2763 7.42943 52.3624 6.9065C52.2417 6.28702 52.0084 5.04812 51.8878 4.43669C41.6141 3.50345 31.3003 3.31033 21.0105 3.18965C16.2237 3.20574 11.4046 2.34494 6.65801 3.01268C3.93071 3.47125 2.31365 5.9009 0.937929 8.057L0.527619 8.68449C1.05055 6.72148 1.21147 4.51712 2.55501 2.90809Z" fill="#F9A0AE"/>
<path d="M6.65801 3.01201C11.4046 2.34426 16.2237 3.20507 21.0105 3.18898C14.4538 4.78191 8.09008 7.05871 1.57353 8.79646L0.382812 8.91711L0.937929 8.05632C2.31365 5.90023 3.93071 3.47058 6.65801 3.01201Z" fill="#FBA6A2"/>
<path d="M1.57227 8.79694C8.08882 7.05919 14.4525 4.78239 21.0093 3.18945C31.299 3.31013 41.6129 3.50325 51.8865 4.43649C52.0072 5.04792 52.2405 6.28683 52.3611 6.9063C51.2751 7.42923 50.197 7.96024 49.1029 8.44295C49.312 7.59821 49.5373 6.76152 49.7706 5.93287C37.8477 6.27077 25.949 7.09939 14.0744 8.12112C17.9843 8.63601 21.9023 9.17505 25.8525 9.48881C17.743 9.6658 9.64958 9.53709 1.57227 8.79694Z" fill="#FDAFA9"/>
<path d="M14.0781 8.12087C25.9527 7.09914 37.8515 6.27051 49.7744 5.93262C49.5411 6.76127 49.3158 7.59796 49.1066 8.44269C41.4074 9.5127 33.5956 9.27938 25.8562 9.48855C21.9061 9.17479 17.9881 8.63576 14.0781 8.12087Z" fill="#FDB9B3"/>
<path d="M6.94382 23.4541C10.8854 22.0124 15.2105 22.257 19.3306 21.9925C29.2969 22.0256 39.4286 21.1791 49.2693 23.2491C48.8394 24.8693 48.8526 26.8004 48.469 28.4934C38.8929 30.4642 29.0522 29.8624 19.3438 29.9814C14.6021 29.7301 9.52302 30.7089 5.1582 28.3942L6.13701 28.295C12.7768 28.9035 19.4298 29.0093 26.0961 28.8638C32.4581 28.6918 38.8797 28.8836 45.2087 28.0041C46.1081 27.6073 46.9943 27.1708 47.8871 26.7409C47.7879 26.2317 47.5961 25.2132 47.4969 24.7106C39.0516 23.9435 30.5733 23.7847 22.1148 23.6855C18.1799 23.6987 14.2185 22.9911 10.3166 23.54C8.07468 23.917 6.74541 25.9143 5.61453 27.6866L5.27724 28.2025C5.70711 26.5888 5.83939 24.7767 6.94382 23.4541Z" fill="#F9A0AE"/>
<path d="M10.3166 23.54C14.2185 22.9911 18.1799 23.6987 22.1148 23.6855C16.725 24.9949 11.4938 26.8665 6.13701 28.295L5.1582 28.3942L5.61453 27.6866C6.74541 25.9142 8.07468 23.917 10.3166 23.54Z" fill="#FBA6A2"/>
<path d="M6.13672 28.2951C11.4935 26.8666 16.7247 24.995 22.1146 23.6855C30.573 23.7847 39.0514 23.9435 47.4966 24.7106C47.5958 25.2133 47.7876 26.2317 47.8868 26.7409C46.994 27.1708 46.1078 27.6073 45.2084 28.0041C45.3803 27.3097 45.5655 26.6219 45.7573 25.9407C35.9563 26.2185 26.1752 26.8996 16.4139 27.7395C19.6279 28.1628 22.8487 28.6059 26.0958 28.8638C19.4296 29.0093 12.7765 28.9035 6.13672 28.2951Z" fill="#FDAFA9"/>
<path d="M16.4141 27.7383C26.1754 26.8984 35.9565 26.2172 45.7575 25.9395C45.5657 26.6206 45.3805 27.3084 45.2086 28.0028C38.8796 28.8824 32.4581 28.6906 26.096 28.8625C22.8489 28.6046 19.6282 28.1615 16.4141 27.7383Z" fill="#FDB9B3"/>
<path d="M15.4126 41.9161C17.7072 41.0768 20.2251 41.2192 22.6237 41.0652C28.4256 41.0845 34.3239 40.5917 40.0527 41.7967C39.8025 42.74 39.8102 43.8642 39.5869 44.8498C34.012 45.9971 28.2832 45.6467 22.6314 45.716C19.8709 45.5697 16.9141 46.1395 14.373 44.792L14.9429 44.7343C18.8083 45.0885 22.6814 45.1501 26.5622 45.0654C30.266 44.9653 34.0043 45.0769 37.6888 44.5649C38.2124 44.3339 38.7283 44.0798 39.2481 43.8295C39.1903 43.5331 39.0787 42.9402 39.0209 42.6476C34.1044 42.201 29.1687 42.1086 24.2445 42.0508C21.9538 42.0585 19.6476 41.6466 17.3761 41.9661C16.0709 42.1856 15.2971 43.3483 14.6387 44.3801L14.4423 44.6804C14.6926 43.741 14.7696 42.6861 15.4126 41.9161Z" fill="#F9A0AE"/>
<path d="M17.3761 41.9654C19.6476 41.6458 21.9538 42.0578 24.2445 42.0501C21.1068 42.8124 18.0614 43.902 14.9429 44.7336L14.373 44.7913L14.6387 44.3794C15.2971 43.3476 16.0709 42.1848 17.3761 41.9654Z" fill="#FBA6A2"/>
<path d="M14.9414 44.7343C18.0599 43.9027 21.1053 42.8131 24.2431 42.0508C29.1672 42.1085 34.103 42.201 39.0195 42.6476C39.0772 42.9402 39.1889 43.533 39.2466 43.8295C38.7269 44.0797 38.211 44.3339 37.6874 44.5649C37.7875 44.1606 37.8953 43.7602 38.0069 43.3637C32.3012 43.5254 26.607 43.9219 20.9243 44.4109C22.7955 44.6573 24.6704 44.9152 26.5608 45.0654C22.68 45.1501 18.8068 45.0885 14.9414 44.7343Z" fill="#FDAFA9"/>
<path d="M20.9258 44.4105C26.6084 43.9215 32.3026 43.525 38.0084 43.3633C37.8967 43.7598 37.7889 44.1602 37.6888 44.5645C34.0043 45.0765 30.266 44.9649 26.5622 45.065C24.6719 44.9148 22.7969 44.6569 20.9258 44.4105Z" fill="#FDB9B3"/>
</svg>
