<svg width="55" height="63" viewBox="0 0 55 63" fill="none" xmlns="http://www.w3.org/2000/svg">
<path d="M12.5298 17.5487C15.385 16.5043 18.518 16.6816 21.5025 16.49C28.7219 16.5139 36.0611 15.9007 43.1895 17.4002C42.8781 18.5739 42.8876 19.9727 42.6098 21.1991C35.673 22.6267 28.5447 22.1908 21.5121 22.277C18.0773 22.0949 14.3981 22.8039 11.2363 21.1272L11.9454 21.0554C16.7551 21.4961 21.5744 21.5728 26.4033 21.4674C31.0118 21.3428 35.6635 21.4818 40.248 20.8446C40.8996 20.5572 41.5415 20.241 42.1882 19.9296C42.1164 19.5607 41.9774 18.823 41.9056 18.4589C35.788 17.9032 29.6465 17.7882 23.5194 17.7163C20.669 17.7259 17.7994 17.2134 14.973 17.611C13.349 17.884 12.3861 19.3308 11.5669 20.6147L11.3226 20.9883C11.6339 19.8194 11.7298 18.5068 12.5298 17.5487Z" fill="#F9A0AE"/>
<path d="M14.973 17.6113C17.7994 17.2137 20.669 17.7263 23.5194 17.7167C19.615 18.6652 15.8257 20.021 11.9454 21.0557L11.2363 21.1276L11.5669 20.615C12.3861 19.3311 13.349 17.8844 14.973 17.6113Z" fill="#FBA6A2"/>
<path d="M11.9453 21.0558C15.8257 20.0211 19.615 18.6653 23.5193 17.7168C29.6465 17.7887 35.788 17.9037 41.9055 18.4594C41.9774 18.8234 42.1163 19.5612 42.1882 19.93C41.5414 20.2414 40.8995 20.5576 40.248 20.8451C40.3726 20.342 40.5067 19.8438 40.6456 19.3504C33.546 19.5516 26.4607 20.045 19.3899 20.6534C21.7181 20.96 24.0511 21.281 26.4033 21.4678C21.5744 21.5732 16.755 21.4966 11.9453 21.0558Z" fill="#FDAFA9"/>
<path d="M19.3906 20.6526C26.4615 20.0442 33.5468 19.5508 40.6464 19.3496C40.5075 19.843 40.3733 20.3413 40.2488 20.8443C35.6642 21.4814 31.0126 21.3425 26.404 21.467C24.0519 21.2802 21.7188 20.9592 19.3906 20.6526Z" fill="#FDB9B3"/>
<path d="M2.55501 35.2304C7.34991 33.4765 12.6114 33.7742 17.6235 33.4524C29.7475 33.4926 42.0727 32.4628 54.0439 34.981C53.5209 36.952 53.537 39.3012 53.0704 41.3607C41.421 43.7582 29.4499 43.0261 17.6396 43.1709C11.8713 42.8652 5.6926 44.0558 0.382812 41.24L1.57353 41.1194C9.65084 41.8596 17.7442 41.9883 25.8537 41.8113C33.5931 41.6021 41.4049 41.8354 49.1041 40.7654C50.1983 40.2827 51.2763 39.7517 52.3624 39.2288C52.2417 38.6093 52.0084 37.3704 51.8878 36.759C41.6141 35.8257 31.3003 35.6326 21.0105 35.5119C16.2237 35.528 11.4046 34.6672 6.65801 35.3349C3.93071 35.7935 2.31365 38.2232 0.937929 40.3793L0.527619 41.0068C1.05055 39.0437 1.21147 36.8394 2.55501 35.2304Z" fill="#F9A0AE"/>
<path d="M6.65801 35.3343C11.4046 34.6665 16.2237 35.5273 21.0105 35.5112C14.4538 37.1042 8.09008 39.381 1.57353 41.1187L0.382812 41.2394L0.937929 40.3786C2.31365 38.2225 3.93071 35.7928 6.65801 35.3343Z" fill="#FBA6A2"/>
<path d="M1.57227 41.1192C8.08882 39.3815 14.4525 37.1047 21.0093 35.5117C31.299 35.6324 41.6129 35.8255 51.8865 36.7588C52.0072 37.3702 52.2405 38.6091 52.3611 39.2286C51.2751 39.7515 50.197 40.2825 49.1029 40.7652C49.312 39.9205 49.5373 39.0838 49.7706 38.2551C37.8477 38.593 25.949 39.4217 14.0744 40.4434C17.9843 40.9583 21.9023 41.4973 25.8525 41.8111C17.743 41.9881 9.64958 41.8594 1.57227 41.1192Z" fill="#FDAFA9"/>
<path d="M14.0781 40.4431C25.9527 39.4214 37.8515 38.5928 49.7744 38.2549C49.5411 39.0835 49.3158 39.9202 49.1066 40.765C41.4074 41.835 33.5956 41.6016 25.8562 41.8108C21.9061 41.4971 17.9881 40.958 14.0781 40.4431Z" fill="#FDB9B3"/>
<path d="M6.94382 55.7763C10.8854 54.3346 15.2105 54.5793 19.3306 54.3148C29.2969 54.3478 39.4286 53.5013 49.2693 55.5713C48.8394 57.1916 48.8526 59.1227 48.469 60.8157C38.8929 62.7865 29.0522 62.1847 19.3438 62.3037C14.6021 62.0524 9.52302 63.0312 5.1582 60.7165L6.13701 60.6173C12.7768 61.2257 19.4298 61.3315 26.0961 61.1861C32.4581 61.0141 38.8797 61.2059 45.2087 60.3263C46.1081 59.9295 46.9943 59.493 47.8871 59.0632C47.7879 58.5539 47.5961 57.5355 47.4969 57.0329C39.0516 56.2657 30.5733 56.107 22.1148 56.0078C18.1799 56.021 14.2185 55.3134 10.3166 55.8623C8.07468 56.2393 6.74541 58.2365 5.61453 60.0089L5.27724 60.5247C5.70711 58.9111 5.83939 57.099 6.94382 55.7763Z" fill="#F9A0AE"/>
<path d="M10.3166 55.8623C14.2185 55.3134 18.1799 56.021 22.1148 56.0078C16.725 57.3172 11.4938 59.1888 6.13701 60.6173L5.1582 60.7165L5.61453 60.0089C6.74541 58.2365 8.07468 56.2392 10.3166 55.8623Z" fill="#FBA6A2"/>
<path d="M6.13672 60.6173C11.4935 59.1889 16.7247 57.3173 22.1146 56.0078C30.573 56.107 39.0514 56.2658 47.4966 57.0329C47.5958 57.5355 47.7876 58.5539 47.8868 59.0632C46.994 59.493 46.1078 59.9295 45.2084 60.3264C45.3803 59.6319 45.5655 58.9442 45.7573 58.263C35.9563 58.5407 26.1752 59.2219 16.4139 60.0618C19.6279 60.4851 22.8487 60.9282 26.0958 61.1861C19.4296 61.3316 12.7765 61.2258 6.13672 60.6173Z" fill="#FDAFA9"/>
<path d="M16.4141 60.0615C26.1754 59.2216 35.9565 58.5405 45.7575 58.2627C45.5657 58.9439 45.3805 59.6317 45.2086 60.3261C38.8796 61.2056 32.4581 61.0138 26.096 61.1858C22.8489 60.9279 19.6282 60.4848 16.4141 60.0615Z" fill="#FDB9B3"/>
<path d="M15.4126 1.58599C17.7072 0.746683 20.2251 0.889126 22.6237 0.735124C28.4256 0.754375 34.3239 0.26158 40.0527 1.46664C39.8025 2.4099 39.8102 3.5341 39.5869 4.51971C34.012 5.66702 28.2832 5.31666 22.6314 5.38596C19.8709 5.23966 16.9141 5.80946 14.373 4.46195L14.9429 4.40421C18.8083 4.75841 22.6814 4.82001 26.5622 4.73531C30.266 4.63521 34.0043 4.74686 37.6888 4.23481C38.2124 4.00381 38.7283 3.74969 39.2481 3.49944C39.1903 3.20299 39.0787 2.61011 39.0209 2.3175C34.1044 1.8709 29.1687 1.77848 24.2445 1.72073C21.9538 1.72843 19.6476 1.31649 17.3761 1.63604C16.0709 1.85549 15.2971 3.01821 14.6387 4.05002L14.4423 4.35031C14.6926 3.4109 14.7696 2.35599 15.4126 1.58599Z" fill="#F9A0AE"/>
<path d="M17.3761 1.63532C19.6476 1.31577 21.9538 1.72771 24.2445 1.72001C21.1068 2.48231 18.0614 3.57188 14.9429 4.40349L14.373 4.46123L14.6387 4.04929C15.2971 3.01749 16.0709 1.85477 17.3761 1.63532Z" fill="#FBA6A2"/>
<path d="M14.9414 4.40418C18.0599 3.57258 21.1053 2.48301 24.2431 1.7207C29.1672 1.77845 34.103 1.87087 39.0195 2.31748C39.0772 2.61008 39.1889 3.20296 39.2466 3.49941C38.7269 3.74967 38.211 4.00378 37.6874 4.23478C37.7875 3.83053 37.8953 3.43013 38.0069 3.03358C32.3012 3.19528 26.607 3.59182 20.9243 4.08077C22.7955 4.32717 24.6704 4.58513 26.5608 4.73528C22.68 4.81998 18.8068 4.75839 14.9414 4.40418Z" fill="#FDAFA9"/>
<path d="M20.9258 4.0804C26.6084 3.59145 32.3026 3.1949 38.0084 3.0332C37.8967 3.42976 37.7889 3.83016 37.6888 4.23441C34.0043 4.74646 30.266 4.63481 26.5622 4.73491C24.6719 4.58476 22.7969 4.3268 20.9258 4.0804Z" fill="#FDB9B3"/>
</svg>
