<svg width="55" height="62" viewBox="0 0 55 62" fill="none" xmlns="http://www.w3.org/2000/svg">
<path d="M12.5298 1.16295C15.385 0.118601 18.518 0.295842 21.5025 0.104219C28.7219 0.128172 36.0611 -0.48501 43.1895 1.01444C42.8781 2.18813 42.8876 3.58697 42.6098 4.81336C35.673 6.24095 28.5447 5.80501 21.5121 5.89124C18.0773 5.7092 14.3981 6.41819 11.2363 4.74149L11.9454 4.66965C16.7551 5.11038 21.5744 5.18702 26.4033 5.08163C31.0118 4.95708 35.6635 5.09601 40.248 4.45886C40.8996 4.17143 41.5415 3.85523 42.1882 3.54385C42.1164 3.17497 41.9774 2.43725 41.9056 2.07317C35.788 1.51746 29.6465 1.40246 23.5194 1.3306C20.669 1.34019 17.7994 0.827608 14.973 1.22523C13.349 1.49829 12.3861 2.94505 11.5669 4.22892L11.3226 4.60257C11.6339 3.43367 11.7298 2.12106 12.5298 1.16295Z" fill="#F9A0AE"/>
<path d="M14.973 1.22558C17.7994 0.827965 20.669 1.34054 23.5194 1.33096C19.615 2.27949 15.8257 3.63524 11.9454 4.67001L11.2363 4.74185L11.5669 4.22928C12.3861 2.94541 13.349 1.49865 14.973 1.22558Z" fill="#FBA6A2"/>
<path d="M11.9453 4.6701C15.8257 3.63534 19.615 2.27959 23.5193 1.33105C29.6465 1.40291 35.788 1.51791 41.9055 2.07362C41.9774 2.4377 42.1163 3.17542 42.1882 3.5443C41.5414 3.85568 40.8995 4.17188 40.248 4.45931C40.3726 3.9563 40.5067 3.45809 40.6456 2.96466C33.546 3.16586 26.4607 3.65928 19.3899 4.26768C21.7181 4.57427 24.0511 4.89525 26.4033 5.08208C21.5744 5.18747 16.755 5.11083 11.9453 4.6701Z" fill="#FDAFA9"/>
<path d="M19.3906 4.26689C26.4615 3.65849 33.5468 3.16507 40.6464 2.96387C40.5075 3.4573 40.3733 3.95551 40.2488 4.45852C35.6642 5.09567 31.0126 4.95674 26.404 5.08129C24.0519 4.89446 21.7188 4.57349 19.3906 4.26689Z" fill="#FDB9B3"/>
<path d="M2.55501 18.8436C7.34991 17.0898 12.6114 17.3875 17.6235 17.0656C29.7475 17.1059 42.0727 16.0761 54.0439 18.5942C53.5209 20.5653 53.537 22.9145 53.0704 24.974C41.421 27.3715 29.4499 26.6394 17.6396 26.7842C11.8713 26.4785 5.6926 27.6691 0.382812 24.8533L1.57353 24.7327C9.65084 25.4728 17.7442 25.6015 25.8537 25.4246C33.5931 25.2154 41.4049 25.4487 49.1041 24.3787C50.1983 23.896 51.2763 23.365 52.3624 22.842C52.2417 22.2226 52.0084 20.9837 51.8878 20.3722C41.6141 19.439 31.3003 19.2459 21.0105 19.1252C16.2237 19.1413 11.4046 18.2805 6.65801 18.9482C3.93071 19.4068 2.31365 21.8364 0.937929 23.9925L0.527619 24.62C1.05055 22.657 1.21147 20.4527 2.55501 18.8436Z" fill="#F9A0AE"/>
<path d="M6.65801 18.9476C11.4046 18.2798 16.2237 19.1406 21.0105 19.1245C14.4538 20.7175 8.09008 22.9943 1.57353 24.732L0.382812 24.8527L0.937929 23.9919C2.31365 21.8358 3.93071 19.4061 6.65801 18.9476Z" fill="#FBA6A2"/>
<path d="M1.57227 24.7325C8.08882 22.9947 14.4525 20.7179 21.0093 19.125C31.299 19.2457 41.6129 19.4388 51.8865 20.372C52.0072 20.9835 52.2405 22.2224 52.3611 22.8418C51.2751 23.3648 50.197 23.8958 49.1029 24.3785C49.312 23.5338 49.5373 22.6971 49.7706 21.8684C37.8477 22.2063 25.949 23.0349 14.0744 24.0567C17.9843 24.5716 21.9023 25.1106 25.8525 25.4244C17.743 25.6013 9.64958 25.4726 1.57227 24.7325Z" fill="#FDAFA9"/>
<path d="M14.0781 24.0564C25.9527 23.0347 37.8515 22.2061 49.7744 21.8682C49.5411 22.6968 49.3158 23.5335 49.1066 24.3782C41.4074 25.4482 33.5956 25.2149 25.8562 25.4241C21.9061 25.1103 17.9881 24.5713 14.0781 24.0564Z" fill="#FDB9B3"/>
<path d="M6.94382 39.3906C10.8854 37.9489 15.2105 38.1936 19.3306 37.929C29.2969 37.9621 39.4286 37.1156 49.2693 39.1856C48.8394 40.8059 48.8526 42.7369 48.469 44.43C38.8929 46.4007 29.0522 45.7989 19.3438 45.918C14.6021 45.6667 9.52302 46.6454 5.1582 44.3307L6.13701 44.2316C12.7768 44.84 19.4298 44.9458 26.0961 44.8003C32.4581 44.6284 38.8797 44.8202 45.2087 43.9406C46.1081 43.5438 46.9943 43.1073 47.8871 42.6774C47.7879 42.1682 47.5961 41.1498 47.4969 40.6471C39.0516 39.88 30.5733 39.7212 22.1148 39.622C18.1799 39.6353 14.2185 38.9277 10.3166 39.4766C8.07468 39.8535 6.74541 41.8508 5.61453 43.6232L5.27724 44.139C5.70711 42.5253 5.83939 40.7133 6.94382 39.3906Z" fill="#F9A0AE"/>
<path d="M10.3166 39.4765C14.2185 38.9276 18.1799 39.6352 22.1148 39.622C16.725 40.9315 11.4938 42.8031 6.13701 44.2315L5.1582 44.3307L5.61453 43.6231C6.74541 41.8507 8.07468 39.8535 10.3166 39.4765Z" fill="#FBA6A2"/>
<path d="M6.13672 44.2316C11.4935 42.8031 16.7247 40.9315 22.1146 39.6221C30.573 39.7213 39.0514 39.88 47.4966 40.6472C47.5958 41.1498 47.7876 42.1682 47.8868 42.6774C46.994 43.1073 46.1078 43.5438 45.2084 43.9406C45.3803 43.2462 45.5655 42.5584 45.7573 41.8772C35.9563 42.155 26.1752 42.8362 16.4139 43.6761C19.6279 44.0993 22.8487 44.5424 26.0958 44.8003C19.4296 44.9458 12.7765 44.84 6.13672 44.2316Z" fill="#FDAFA9"/>
<path d="M16.4141 43.6758C26.1754 42.8359 35.9565 42.1547 45.7575 41.877C45.5657 42.5581 45.3805 43.2459 45.2086 43.9403C38.8796 44.8199 32.4581 44.6281 26.096 44.8C22.8489 44.5421 19.6282 44.099 16.4141 43.6758Z" fill="#FDB9B3"/>
<path d="M15.4126 57.8526C17.7072 57.0133 20.2251 57.1557 22.6237 57.0017C28.4256 57.021 34.3239 56.5282 40.0527 57.7332C39.8025 58.6765 39.8102 59.8007 39.5869 60.7863C34.012 61.9336 28.2832 61.5833 22.6314 61.6526C19.8709 61.5063 16.9141 62.0761 14.373 60.7285L14.9429 60.6708C18.8083 61.025 22.6814 61.0866 26.5622 61.0019C30.266 60.9018 34.0043 61.0135 37.6888 60.5014C38.2124 60.2704 38.7283 60.0163 39.2481 59.766C39.1903 59.4696 39.0787 58.8767 39.0209 58.5841C34.1044 58.1375 29.1687 58.0451 24.2445 57.9873C21.9538 57.995 19.6476 57.5831 17.3761 57.9026C16.0709 58.1221 15.2971 59.2848 14.6387 60.3166L14.4423 60.6169C14.6926 59.6775 14.7696 58.6226 15.4126 57.8526Z" fill="#F9A0AE"/>
<path d="M17.3761 57.9029C19.6476 57.5833 21.9538 57.9953 24.2445 57.9876C21.1068 58.7499 18.0614 59.8395 14.9429 60.6711L14.373 60.7288L14.6387 60.3169C15.2971 59.2851 16.0709 58.1223 17.3761 57.9029Z" fill="#FBA6A2"/>
<path d="M14.9414 60.6708C18.0599 59.8392 21.1053 58.7496 24.2431 57.9873C29.1672 58.0451 34.103 58.1375 39.0195 58.5841C39.0772 58.8767 39.1889 59.4696 39.2466 59.766C38.7269 60.0163 38.211 60.2704 37.6874 60.5014C37.7875 60.0971 37.8953 59.6967 38.0069 59.3002C32.3012 59.4619 26.607 59.8584 20.9243 60.3474C22.7955 60.5938 24.6704 60.8517 26.5608 61.0019C22.68 61.0866 18.8068 61.025 14.9414 60.6708Z" fill="#FDAFA9"/>
<path d="M20.9258 60.347C26.6084 59.858 32.3026 59.4615 38.0084 59.2998C37.8967 59.6964 37.7889 60.0968 37.6888 60.501C34.0043 61.0131 30.266 60.9014 26.5622 61.0015C24.6719 60.8514 22.7969 60.5934 20.9258 60.347Z" fill="#FDB9B3"/>
</svg>
