<svg width="921" height="321" viewBox="0 0 921 321" fill="none" xmlns="http://www.w3.org/2000/svg">
<g clip-path="url(#clip0_126_1084)">
<path d="M504.077 274.806C502.908 271.271 501.775 268.302 500.826 265.854L506.385 269.722C506.426 272.156 506.565 277.815 506.644 283.935C506.097 281.082 505.177 278.019 504.077 274.806ZM140.378 265.382C139.924 269.283 139.439 273.555 139.006 277.877C138.651 276.383 138.271 274.868 137.862 273.293C137.434 271.629 137.049 270.168 136.817 269.095L136.687 268.533C135.755 264.185 133.56 254.083 133.805 252.244C133.846 252.156 133.846 252.116 133.859 252.096C134.054 251.975 134.774 251.737 137.302 251.737C140.112 251.737 141.245 252.029 141.665 252.184C141.665 253.969 141.013 259.736 140.378 265.382ZM812.041 192.452C812.133 194.63 812.249 196.854 812.395 199.181L812.634 203.751C812.734 206.489 813.027 208.958 813.362 211.121C812.781 210.656 812.249 210.23 811.795 209.965C810.446 209.167 808.431 208.626 806.689 208.336C807.984 204.791 810.138 198.645 812.041 192.452ZM914.07 154.817C908.584 150.213 891.38 138.765 885.183 136.886C882.034 135.906 878.855 136.325 876.247 138.048C872.93 140.226 870.797 144.202 870.288 149.259C869.575 155.891 870.504 171.674 870.945 178.076H868.127C863.685 178.076 859.666 182.552 859.072 188.023C858.792 190.876 859.184 195.074 859.532 197.928C859.393 197.888 859.212 197.839 859.036 197.806C857.411 197.272 855.994 196.799 855.601 191.531C855.208 185.439 854.761 173.512 854.761 164.858C854.761 161.687 853.894 159.332 852.09 157.758C848.581 154.647 842.662 155.297 834.468 156.189L832.579 156.365C822.223 157.467 815.725 162.43 812.821 171.532C812.695 171.288 812.579 171.051 812.426 170.848C809.752 167 805.075 164.505 798.795 163.62C790.172 162.397 772.583 163.052 760.961 163.498L758.317 163.587C746.417 164.04 738.799 167.069 732.318 170.273C729.162 171.795 727.301 175.513 726.164 179.341C725.799 178.421 725.372 177.563 724.987 176.853C722.143 171.76 713.574 168.312 707.001 167.866C700.541 167.42 686.67 168.995 668.918 172.146C662.078 173.363 657.419 176.075 654.272 179.05C654.305 178.395 654.326 177.8 654.326 177.238C654.326 173.072 654.326 162.038 645.83 160.233C639.37 158.868 628.354 158.475 607.821 158.921C588.15 159.306 573.282 162.011 559.589 167.637C552.869 170.369 549.359 175.087 547.703 179.497C546.555 177.772 545.35 176.049 544.308 175.001C541.511 172.207 527.162 163.106 518.435 159.935C514.365 158.447 493.474 151.105 480.775 152.118C469.782 152.978 464.199 160.286 464.199 173.81C464.199 182.438 465.292 196.319 465.733 201.666C463.509 202.269 460.027 203.331 457.369 204.79C454.829 206.19 452.821 208.3 451.53 209.909C450.871 209.55 450.051 209.192 449.095 208.875C448.241 208.597 447.34 208.179 446.554 207.773C449.303 202.567 455.876 189.456 457.289 180.598C457.897 176.758 456.969 173.106 454.499 170.124C449.927 164.539 441.2 162.199 435.087 161.895C425.273 161.414 405.188 162.037 396.993 162.342C384.4 162.781 378.523 166.777 373.603 172.599C372.476 173.972 371.561 176.19 370.875 178.812C370.54 176.96 370.222 175.384 369.895 174.35C367.505 166.675 358.021 165.255 349.048 164.857C342.795 164.6 335.3 165.134 327.361 165.729C322.601 166.053 317.704 166.412 313.139 166.587C300.695 167.034 294.675 170.097 288.642 173.761C280.85 178.514 279.688 192.12 279.688 199.8C279.688 206.541 279.855 217.488 279.976 224.567C278.261 222.748 276.465 220.909 275.311 219.989C273.654 218.61 271.087 217.305 269.137 216.445C271.113 212.789 274.764 205.594 277.813 196.798C282.751 182.584 275.724 173.511 272.473 170.312C270.26 168.135 264.227 164.979 237.295 162.76C221.799 161.475 216 161.002 202.608 163.646C196.109 164.923 192.039 170.603 189.469 176.607C189.281 175.539 189.049 174.558 188.748 173.781C187.007 169.028 182.523 162.341 175.195 157.993C168.468 154.01 148.332 144.943 129.458 139.034C122.297 136.742 116.499 136.952 112.255 139.554C105.814 143.578 104.581 152.078 103.772 157.696C102.687 165.195 102.212 185.912 102.079 193.289C100.091 193.376 97.373 193.883 94.6727 195.452C90.0938 198.197 87.2247 203.7 86.1294 211.807C85.409 217.129 84.4358 235.567 84.1075 242.342L68.7411 242.011C69.595 238.833 71.1627 233.323 73.5051 226.622C77.7978 214.328 73.4402 203.897 69.1685 200.718C66.6725 198.88 62.7691 197.297 60.3218 196.405C61.5812 190.617 64.9322 174.674 66.3071 161.298C66.8672 155.828 65.7852 151.42 63.084 148.181C57.9927 142.061 48.3568 141.203 39.0282 140.365L36.9043 140.189C36.6924 140.155 28.3981 138.883 22.0779 139.775C14.6785 140.818 5.50921 149.147 3.20782 156.89C0.930282 164.564 -0.350175 208.71 0.083959 231.374C0.551488 255.749 1.96553 273.457 3.12004 281.916C4.50259 291.957 12.2302 299.327 21.8909 299.867C30.065 300.314 62.9523 302.011 74.0805 302.011C85.7515 302.011 89.0166 300.612 93.5344 296.15C94.9275 294.777 96.1946 293.201 97.2699 291.755C97.8577 294.452 98.5504 297.387 99.1782 299.063C101.053 303.993 108.159 304.318 118.202 303.255C127.439 302.303 134.418 300.822 138.69 296.569C139.536 295.737 140.076 294.662 140.418 293.391C143.113 297.63 148.172 298.679 153.442 299.713C154.838 300.01 156.28 300.282 157.789 300.674C170.358 303.648 176.546 295.197 180.903 286.522C182.385 283.642 184.051 279.037 185.66 274.149C185.66 276.765 185.735 279.234 185.909 281.342C186.834 291.667 188.958 296.927 198.708 298.95C205.933 300.465 228.269 298.653 246.257 297.198L255.367 296.447C270.174 295.311 273.185 289.409 276.101 283.641C276.808 282.295 277.528 280.895 278.416 279.53C279.676 277.602 280.758 275.283 281.662 272.897C281.963 274.777 282.332 276.555 282.8 278.076C284.989 285 292.139 295.932 298.411 300.281C303.697 303.878 316.724 304.121 330.53 304.392L338.097 304.562C350.09 304.912 354.392 301.708 358.916 298.321C360.139 297.422 361.358 296.53 362.762 295.643C364.803 294.399 366.363 291.837 367.6 288.693C368.007 290.384 368.506 291.818 369.148 292.764C372.371 297.55 377.209 304.739 390.274 306.639C403.919 308.666 405.582 301.148 407.19 293.886L407.358 293.184C408.864 286.551 411.513 266.421 412.347 260.268C413.648 259.971 415.359 259.585 416.534 259.376C417.08 259.228 417.747 259.139 418.436 259.011C417.715 262.784 416.431 269.193 414.817 275.847C413.409 281.595 410.501 295.469 413.283 300.993C415.827 306.022 429.493 305.252 440.481 303.677C448.942 302.487 454.888 297.423 456.817 289.849C457.37 287.652 457.818 283.514 458.221 279.382C460.843 286.132 464.404 294.332 468.062 299.95C476.431 312.967 491.076 305.367 498.951 301.303C503.601 298.889 505.896 295.853 506.777 292.317C506.797 294.399 506.797 296.388 506.797 298.179C506.797 310.356 518.056 310.661 525.548 310.843C526.589 310.87 527.609 310.898 528.603 310.924C537.245 311.404 542.791 308.031 546.553 300.106C549.706 293.392 555.357 276.123 557.457 268.145C559.707 259.673 560.316 249.003 556.566 244.209C554.182 241.18 549.022 235.155 546.795 232.586C547.554 230.834 548.776 227.894 549.678 225.311C550.07 224.141 550.524 222.451 550.971 220.699C552.566 223.783 554.942 226.554 558.484 227.027C562.978 227.63 568.629 226.906 572.112 226.318C571.93 236.872 571.391 270.612 571.757 280.809C572.132 291.667 575.147 300.911 579.798 305.515C584.39 310.066 601.266 311.317 609.253 310.924C619.975 310.485 623.785 302.277 623.785 294.778C623.785 289.484 623.128 262.762 622.945 255.831C624.506 255.067 626.91 253.749 628.689 252.599C632.408 250.132 634.99 242.193 634.55 234.588C634.205 229.143 633.877 218.765 633.75 214.065C636.01 213.863 639.346 213.471 641.598 212.91C642.919 212.598 644.179 211.955 645.381 211.238C644.9 218.555 644.026 231.219 643.131 238.684C641.837 250.036 644.026 269.421 645.29 280.99C646.884 294.993 653.578 305.223 662.377 307.056C671.118 308.875 691.768 308.34 703.55 307.536C716.335 306.637 725.071 302.755 728.706 299.686C730.246 298.38 731.349 296.15 732.189 293.919C732.916 295.346 733.665 296.737 734.258 297.731C736.365 301.444 741.797 301.822 750.778 302.512L755.19 302.83C770.686 304.122 773.421 295.346 773.861 292.648L774.23 290.592C775.223 284.77 776.91 274.966 776.91 268.353C776.91 261.456 778.472 261.301 780.589 261.127C780.835 261.066 780.923 261.099 780.954 261.099C781.763 262.168 781.107 267.583 780.782 270.166C780.533 272.485 780.055 275.285 779.601 278.192C778.553 284.535 777.439 291.067 777.799 295.347C778.344 303.101 789.778 307.057 800.899 307.537C813.297 308.071 817.896 300.051 819.304 296.57C821.1 292.107 825.031 278.679 826.771 269.247C827.858 263.48 828.694 255.453 829.24 249.983C830.108 250.807 830.982 251.626 831.821 252.18C833.451 253.248 835.345 254.027 836.723 254.472C836.723 262.236 836.781 291.038 837.129 297.042C837.675 305.549 846.27 311.343 854.284 316.097C863.5 321.593 872.962 321.959 878.433 317.11C882.391 313.54 883.479 304.506 884.432 292.999C884.552 291.282 884.733 289.604 884.859 288.213C885.607 281.377 886.327 263.513 886.529 257.59C891.006 256.453 902.236 253.431 907.614 250.604C915.537 246.412 919.322 234.046 920.134 224.708C920.552 220.192 921 207.466 921 172.537C921.003 163.919 920.403 160.139 914.07 154.817Z" fill="#00011E"/>
<path d="M549.806 188.146C549.597 186.509 551.029 176.672 561.549 172.33C574.631 166.976 588.928 164.42 607.935 164.041C627.78 163.622 638.769 163.98 644.747 165.258C647.746 165.872 649.795 169.687 649.795 177.24C649.795 182.095 649.166 189.337 649.139 189.424L651.14 190.228C651.236 189.803 655.173 179.796 669.818 177.172C686.936 174.143 700.7 172.575 706.645 172.953C712.734 173.366 718.98 176.644 720.449 179.322C722.107 182.203 725.163 187.829 725.765 190.228L728.353 189.695C728.534 183.947 731.45 176.402 734.632 174.827C740.575 171.879 747.567 169.12 758.529 168.707L761.144 168.612C772.611 168.166 789.906 167.517 798.067 168.667C801.403 169.154 805.852 170.43 808.164 173.731C809.779 176.05 810.137 179.201 809.251 183.034C806.717 193.826 800.808 209.37 800.751 209.527L799.516 212.704L802.933 213C804.838 213.15 808.017 213.684 809.124 214.332C810.417 215.083 815.068 216.666 817.144 218.856L818.998 218.173C818.972 218.084 818.152 211.959 817.772 203.514L817.53 198.882C817.045 190.403 816.362 177.536 817.69 173.311C819.214 168.374 822.304 162.607 833.081 161.444L835.007 161.241C841.369 160.558 846.846 159.963 848.642 161.566C848.873 161.775 849.601 162.431 849.601 164.859C849.601 173.608 850.05 185.704 850.469 191.864C850.95 199.091 853.587 201.404 857.41 202.662C860.531 203.657 862.72 203.217 863.147 203.135L865.426 202.568L865.078 200.248C864.736 198.104 863.896 191.776 864.196 188.564C864.552 185.265 866.747 183.175 868.126 183.175H876.509L876.267 180.444C876.247 180.207 874.546 157.582 875.392 149.793C875.793 146.284 877.077 143.613 879.063 142.3C880.412 141.435 882 141.232 883.721 141.768C888.7 143.275 905.063 153.951 910.735 158.746C915.4 162.634 915.842 164.683 915.842 172.54C915.842 207.293 915.4 219.876 915.005 224.271C914.11 234.556 910.054 243.501 905.164 246.091C899.058 249.303 883.561 253.076 883.415 253.109L881.499 253.55L881.428 255.483C881.428 255.727 880.587 279.77 879.758 287.682C879.584 289.136 879.42 290.833 879.298 292.584C878.704 299.419 877.771 310.846 874.975 313.308C871.911 316.041 865.164 316.607 856.959 311.732C848.415 306.641 842.637 302.158 842.303 296.742C841.856 290.055 841.856 252.983 841.856 252.603V250.608L839.936 250.136C839.875 250.095 836.873 249.324 834.715 247.931C833.083 246.849 829.299 244.455 828.077 242.759L825.901 243.442C825.901 243.597 823.358 259.209 821.671 268.331C820.049 277.344 816.18 290.502 814.524 294.667C813.001 298.413 809.487 302.788 801.111 302.429C791.342 302.016 783.206 298.682 782.941 295.026C782.675 291.3 783.76 284.774 784.683 279.041C785.187 276.032 785.649 273.193 785.942 270.792C786.724 264.105 787.053 259.886 784.654 257.479C783.835 256.701 782.432 255.782 780.109 256.018C772.758 256.762 771.767 262.38 771.767 268.358C771.767 274.531 770.121 284.052 769.128 289.731L768.772 291.786C767.745 297.826 760.124 298.116 755.639 297.737L751.143 297.393C745.709 297.014 739.497 296.575 738.709 295.202C737.05 292.322 732.406 285.608 732.406 285.54L730.008 286.283C729.541 289.346 726.911 294.491 725.344 295.79C723.062 297.737 715.534 301.598 703.182 302.429C689.343 303.382 670.719 303.558 663.459 302.071C656.978 300.705 651.753 292.024 650.452 280.434C649.164 269.076 647.004 250.075 648.29 239.256C649.557 228.249 649.612 206.133 649.612 205.93L647.088 205.186C646.163 206.105 642.625 207.41 640.368 207.972C637.186 208.748 630.961 209.169 630.94 209.169L628.451 209.345L628.499 211.786C628.499 211.962 628.954 227.662 629.373 234.89C629.793 241.813 627.205 247.399 625.809 248.346C623.401 249.927 619.229 252.002 619.191 252.03L617.716 252.753L617.779 254.383C617.779 254.715 618.624 288.894 618.624 294.784C618.624 298.74 617.367 305.46 609.045 305.852C598.99 306.299 585.833 304.27 583.462 301.896C580.545 299.037 577.309 291.929 576.91 280.605C576.462 268.895 577.329 223.713 577.329 223.294L577.397 220.014L574.181 220.739C574.091 220.739 565.084 222.754 559.167 221.955C556.103 221.57 550.937 209.432 550.937 209.432L549.23 209.737C549.202 209.825 546.014 220.048 544.759 223.713C543.557 227.364 541.454 231.915 541.42 231.969L540.761 233.429L541.81 234.674C541.868 234.761 549.558 243.626 552.505 247.371C554.671 250.096 554.671 258.675 552.474 266.837C550.405 274.666 544.812 291.671 541.868 297.932C539.055 303.971 535.39 306.175 528.866 305.851C527.816 305.783 526.708 305.749 525.655 305.729C516.341 305.485 511.962 304.687 511.962 298.183C511.962 287.209 511.522 268.5 511.508 268.304L511.494 267.02L510.418 266.242L495.578 258.311L494.311 260.386C494.369 260.453 495.431 265.302 499.163 276.418C503.199 288.339 503.398 293.206 496.559 296.743C484.661 302.903 477.32 304.83 472.396 297.231C465.791 286.967 458.358 268.332 458.282 268.123L455.735 268.806C455.52 273.465 452.819 284.628 451.822 288.638C450.801 292.566 447.898 297.469 439.758 298.631C426.888 300.442 419.154 299.692 417.883 298.631C416.832 296.366 416.992 288.725 419.819 277.041C422.401 266.459 424.142 256.526 424.176 256.438L424.756 253.05L421.3 253.49C421.133 253.49 417.728 253.903 415.515 254.355C413.378 254.802 409.608 255.606 409.44 255.64L407.654 256.053L407.438 257.81C407.41 258.102 403.989 284.627 402.319 292.084L402.159 292.768C400.52 300.137 399.905 302.903 391.023 301.599C380.219 300.015 376.456 294.431 373.42 289.948C371.57 287.176 370.022 277.452 370.357 268.359C370.415 267.258 370.47 266.365 370.491 265.77L367.8 265.568C367.773 266.1 367.722 266.96 367.688 268.028C367.101 278.11 363.675 289.049 360.038 291.335C358.437 292.322 357.092 293.295 355.835 294.263C351.687 297.347 348.436 299.754 338.253 299.463L330.618 299.28C319.357 299.07 305.363 298.806 301.358 296.062C296.461 292.701 289.854 283.221 287.732 276.527C285.718 270.171 284.448 259.854 284.448 259.74L281.791 259.321C281.791 259.469 278.441 270.078 274.061 276.772C273.019 278.368 272.244 279.896 271.489 281.35C268.816 286.644 266.88 290.452 254.942 291.337L245.831 292.087C230.046 293.399 206.249 295.319 199.767 293.988C193.337 292.656 191.9 290.424 191.06 280.903C190.234 271.458 190.667 253.019 190.688 252.844L188.086 252.566C188.025 252.81 180.416 276.055 176.281 284.271C171.842 293.061 167.577 297.74 158.976 295.678C157.364 295.319 155.896 295.029 154.458 294.731C146 293.04 142.848 292.378 143.75 282.662C144.245 276.955 144.924 271.12 145.491 265.941C146.744 254.953 147.024 252.033 146.68 250.708C145.659 246.631 140.226 246.631 137.297 246.631C134.455 246.631 129.658 246.631 128.736 251.262C128.302 253.439 129.364 259.146 131.639 269.58L131.772 270.174C132.025 271.364 132.414 272.845 132.854 274.576C134.036 279.045 137.129 290.899 135.022 292.975C131.86 296.132 125.778 297.35 117.659 298.187C105.482 299.467 104.147 297.64 104.007 297.296C103.037 294.672 101.597 287.18 101.124 284.544L99.8335 277.288L96.306 283.765C96.2717 283.82 93.4274 289.02 89.8799 292.569C86.7417 295.618 85.0271 296.903 74.0764 296.903C63.0542 296.903 30.3176 295.238 22.1664 294.787C16.3099 294.434 9.4496 290.06 8.22067 281.237C7.08047 272.907 5.6941 255.462 5.22562 231.262C4.76477 207.327 6.23987 164.79 8.15578 158.36C10.024 152.025 17.9186 145.52 22.8152 144.838C28.3674 144.067 36.1427 145.25 36.4022 145.277L38.5633 145.488C46.8367 146.211 55.3982 146.981 59.1031 151.431C60.9122 153.641 61.5925 156.704 61.1717 160.809C59.4752 177.057 54.8371 197.308 54.7799 197.517L54.2427 199.822L56.5336 200.546C58.3407 201.086 63.5341 202.953 66.0607 204.832C68.3106 206.489 72.2273 214.637 68.6254 224.948C64.7526 236.009 63.0246 243.624 62.954 243.954L62.2775 247.011L65.4157 247.071L86.4736 247.483L88.9973 247.544L89.1166 245.077C89.1166 244.814 90.4314 218.681 91.251 212.467C91.8521 208.011 93.3959 202.21 97.3193 199.863C100.683 197.861 104.104 198.456 104.118 198.456L107.119 199.025C107.139 199.025 107.201 195.996 107.201 195.996C107.201 195.692 107.649 167.098 108.895 158.414C109.615 153.446 110.585 146.651 115.007 143.905C117.886 142.099 122.236 142.099 127.915 143.878C146.398 149.7 166.037 158.51 172.541 162.365C178.722 166.056 182.525 171.762 183.918 175.543C185.196 179.052 186.729 189.308 186.729 192.988L189.385 193.204C189.952 186.99 194.61 170.451 203.618 168.647C216.283 166.138 221.89 166.619 236.884 167.835C263.014 170.013 267.921 173.042 268.822 173.935C271.39 176.463 276.95 183.631 272.937 195.131C268.781 207.052 263.314 216.294 263.256 216.389L261.705 218.979L264.556 220.067C266.018 220.615 270.16 222.367 271.99 223.914C274.019 225.538 280.237 229.797 281.985 231.757L284.649 231.258C284.649 231.048 284.823 210.291 284.823 199.804C284.823 188.715 287.278 180.601 291.363 178.133C296.943 174.739 302.112 172.095 313.329 171.676C317.994 171.535 322.952 171.176 327.742 170.817C335.532 170.276 342.876 169.715 348.821 169.992C358.993 170.431 363.822 172.183 364.959 175.84C366.294 180.182 369.057 194.752 369.542 200.487L372.205 200.345C372.387 191.501 375.015 178.938 377.571 175.902C381.747 170.932 386.473 167.815 397.194 167.423C405.298 167.16 425.229 166.537 434.817 167.003C440.257 167.274 447.23 169.33 450.501 173.339C452.035 175.247 452.601 177.323 452.209 179.824C450.581 189.905 440.978 207.322 440.859 207.498L439.711 209.553L441.698 210.865C441.832 210.954 444.588 212.793 447.476 213.713C449.371 214.334 450.348 215.261 450.365 215.261L452.701 217.433C452.728 217.458 454.377 214.761 454.377 214.761C454.397 214.701 456.658 211.042 459.868 209.285C463.365 207.357 468.985 206.134 469.064 206.134L471.28 205.654L471.078 203.408C471.072 203.219 469.365 184.22 469.365 173.814C469.365 162.962 473.029 157.856 481.175 157.201C492.785 156.275 512.759 163.328 516.66 164.72C524.624 167.6 538.095 176.917 540.672 178.607C544.368 181.075 548.093 188.453 548.093 188.453L549.806 188.146Z" fill="#FFE500"/>
<path d="M19.5778 174.826C19.5778 165.17 20.739 161.181 33.346 160.613C45.9703 160.045 48.2716 160.045 45.9703 177.653C43.6755 195.247 41.3742 215.68 41.3742 215.68C41.3742 215.68 46.5437 214.544 50.5492 218.533C54.5785 222.516 52.8572 231.015 51.7027 238.419C50.5492 245.796 49.4252 257.148 49.4252 257.148C49.4252 257.148 71.2006 257.709 82.678 258.285C94.1544 258.846 94.7421 258.285 91.853 274.187C89.7844 285.681 86.1167 285.54 71.7817 284.41C57.44 283.274 31.6181 283.274 24.7578 277.608C17.8498 271.928 16.7363 266.783 16.7363 252.03C16.7363 237.26 19.5778 174.826 19.5778 174.826Z" fill="#00011E"/>
<path d="M119.959 206.611C119.959 206.611 117.091 183.893 117.091 171.411C117.091 158.922 121.687 154.939 131.986 158.353C142.329 161.741 160.092 170.275 168.127 174.222C176.172 178.213 180.163 189.01 175.004 201.492C169.869 213.981 166.98 225.34 166.98 225.34C166.98 225.34 172.703 230.478 176.743 234.434C180.738 238.416 181.318 246.915 178.456 253.738C175.581 260.547 171.576 273.048 168.7 279.297C165.843 285.537 162.974 284.408 156.653 283.814C150.35 283.272 148.066 283.272 152.078 270.196C156.101 257.146 160.092 246.915 154.933 241.811C149.777 236.692 143.47 236.13 136.009 236.13C128.561 236.13 122.252 235.001 121.084 242.939C119.961 250.905 123.398 263.392 124.56 271.926C125.68 280.432 126.268 281.548 118.253 283.272C110.204 284.977 103.324 287.823 102.757 274.185C102.169 260.547 101.043 228.187 101.043 220.817C101.043 213.413 102.17 208.876 107.322 207.74C112.494 206.611 119.959 206.611 119.959 206.611Z" fill="#00011E"/>
<path d="M200.814 203.217C201.395 192.432 201.962 183.893 216.856 182.764C231.793 181.601 246.124 182.202 253.585 183.332C261.04 184.461 264.468 195.246 259.892 202.623C255.3 210.034 246.124 228.756 246.124 228.756C246.124 228.756 253.011 229.885 261.039 231.575C269.067 233.306 272.515 238.986 270.787 251.468C269.066 263.95 263.914 275.315 257.023 279.299C250.143 283.274 242.114 282.678 234.094 282.678C226.045 282.678 214.575 282.678 211.157 282.678C207.701 282.678 203.105 280.995 201.961 276.444C200.814 271.927 200.814 203.217 200.814 203.217Z" fill="#00011E"/>
<path d="M336.75 181.072C345.918 179.916 355.668 179.342 356.248 192.986C356.819 206.61 356.248 268.498 355.114 274.745C353.953 280.993 351.652 286.666 342.484 286.666C333.295 286.666 316.105 287.235 309.784 286.105C303.473 284.976 298.328 279.858 297.74 273.049C297.167 266.24 289.712 206.042 291.433 198.105C293.144 190.139 298.328 184.46 310.938 183.33C323.559 182.201 336.75 181.072 336.75 181.072Z" fill="#00011E"/>
<path d="M426.788 175.36C437.691 174.223 444.558 180.478 438.821 191.865C433.088 203.218 425.073 216.835 425.073 216.835C425.073 216.835 435.943 219.093 443.417 221.953C450.872 224.773 453.734 232.712 451.439 246.349C449.137 260.001 446.849 274.186 445.132 280.433C443.418 286.667 443.418 287.824 435.376 289.521C427.362 291.218 425.074 291.218 426.201 281.549C427.362 271.927 432.514 257.147 433.662 250.339C434.802 243.503 433.089 242.941 425.648 242.941C418.18 242.941 409.012 243.503 404.996 243.503C400.96 243.503 399.816 246.35 399.249 251.469C398.676 256.587 396.381 264.559 395.828 274.748C395.254 284.978 395.828 288.968 386.639 284.978C379.807 282.009 378.605 275.315 379.766 259.413C380.893 243.503 382.621 207.741 383.764 195.815C384.925 183.895 389.507 178.776 402.135 177.086C414.731 175.36 426.788 175.36 426.788 175.36Z" fill="#00011E"/>
<path d="M482.962 212.277C482.962 212.284 482.42 184.461 482.42 177.084C482.42 169.714 488.146 162.878 498.489 167.421C508.791 171.971 526.589 182.201 532.33 186.745C538.029 191.269 541.491 198.665 537.454 208.3C533.47 217.963 527.73 238.416 527.73 238.416C527.73 238.423 532.896 243.502 537.454 248.044C542.057 252.601 543.772 259.411 540.909 269.627C538.028 279.858 537.454 282.676 535.751 286.666C534.043 290.655 530.595 291.784 524.84 290.655C519.135 289.52 516.827 287.823 517.956 280.432C519.134 273.049 520.845 262.264 520.845 258.843C520.845 255.455 518.546 252.602 512.81 250.337C507.083 248.044 496.18 245.232 490.423 243.502C484.717 241.811 478.397 244.096 480.698 250.337C482.962 256.584 488.146 273.616 490.423 279.296C492.732 284.976 493.305 284.976 487.005 288.37C480.698 291.783 477.256 294.609 473.807 286.105C470.382 277.606 464.642 246.916 462.914 237.259C461.193 227.632 460.053 223.081 468.64 219.092C477.257 215.136 482.962 212.277 482.962 212.277Z" fill="#00011E"/>
<path d="M586.795 205.482C586.795 205.482 578.746 208.301 570.731 208.877C562.718 209.43 558.121 208.301 560.969 195.814C563.848 183.331 566.737 182.203 579.32 180.479C591.968 178.774 618.893 175.955 627.515 175.36C636.127 174.827 640.124 174.224 640.692 181.601C641.272 189.012 643.015 191.864 634.392 192.988C625.81 194.117 617.753 194.691 617.753 194.691C617.753 194.691 617.753 221.953 617.753 228.187C617.753 234.435 617.195 236.694 613.173 238.987C609.175 241.245 605.146 242.942 605.146 242.942C605.146 242.942 608.027 267.378 609.175 275.316C610.305 283.275 612.018 291.22 609.746 293.478C607.454 295.771 598.845 296.339 593.676 292.917C588.503 289.523 589.077 284.979 589.077 267.947C589.075 250.905 586.795 205.482 586.795 205.482Z" fill="#00011E"/>
<path d="M700.336 188.45C710.071 187.557 716.402 184.46 719.288 203.779C722.142 223.083 722.142 265.084 722.736 273.617C723.289 282.11 719.854 287.235 707.241 288.966C694.623 290.656 684.875 291.218 676.28 290.656C667.665 290.082 663.069 287.235 661.925 275.882C660.756 264.558 657.329 214.542 657.902 206.042C658.503 197.544 665.916 193.555 676.28 191.864C686.582 190.14 694.022 189.011 700.336 188.45Z" fill="#00011E"/>
<path d="M747.96 186.184C747.96 186.184 767.443 181.6 778.949 179.916C790.394 178.212 794.977 180.477 797.272 185.028C799.569 189.578 798.402 197.544 794.417 204.913C790.394 212.276 785.822 220.817 785.822 220.817C785.822 220.817 796.124 222.514 803.565 224.772C811.04 227.065 816.773 231.574 814.475 243.502C812.181 255.456 809.305 274.184 807.591 282.109C805.88 290.081 800.724 291.217 797.273 287.235C793.844 283.273 792.703 277.607 794.418 268.499C796.125 259.412 797.829 254.293 798.402 250.905C799.005 247.484 798.403 241.811 790.395 242.38C782.368 242.941 776.067 242.941 771.464 244.096C766.878 245.233 762.275 245.794 761.701 254.888C761.145 263.949 761.145 275.883 760.572 282.109C760.004 288.371 757.116 288.371 751.416 284.976C745.645 281.548 739.338 281.109 739.94 268.499C740.514 256.585 741.647 241.243 743.403 220.222C744.834 202.121 747.96 186.184 747.96 186.184Z" fill="#00011E"/>
<path d="M835.706 171.411C839.687 171.411 844.287 173.107 844.287 179.917C844.287 186.745 845.461 199.234 846.001 204.345C846.602 209.429 847.169 215.677 857.511 216.265C867.828 216.834 875.274 215.677 875.274 215.677C875.274 215.677 875.274 206.042 875.274 199.234C875.274 192.431 878.703 191.268 882.189 191.268C885.611 191.268 886.785 191.268 886.785 191.268C886.785 191.268 885.611 181.072 885.611 170.815C885.611 160.612 883.889 156.074 890.777 157.792C897.647 159.482 903.38 161.179 903.954 165.731C904.529 170.274 903.954 216.265 903.38 222.513C902.813 228.753 901.072 233.305 891.91 236.13C882.728 238.984 871.252 240.114 871.252 240.114C871.252 240.114 868.393 275.881 867.827 284.408C867.225 292.914 868.393 295.199 860.359 295.199C852.345 295.199 852.345 295.199 852.345 286.105C852.345 277.004 852.908 235.001 852.908 235.001C852.908 235.001 841.441 232.169 835.131 225.934C828.825 219.653 825.4 210.031 825.4 194.689C825.4 179.341 824.225 171.41 828.825 171.41C833.414 171.411 835.706 171.411 835.706 171.411Z" fill="#00011E"/>
<path d="M144.041 208.3L153.217 199.233L149.201 184.46L137.734 195.813L144.041 208.3Z" fill="#FFE500"/>
<path d="M219.746 208.876L224.906 217.963L234.669 212.845L233.508 198.666L219.746 208.876Z" fill="#FFE500"/>
<path d="M222.611 249.741H242.683L239.248 266.78L223.192 261.69L222.611 249.741Z" fill="#FFE500"/>
<path d="M310.348 207.739C310.348 207.739 317.245 207.739 318.973 207.739C320.701 207.739 322.972 208.3 322.972 211.147C322.972 213.981 322.972 228.185 322.972 233.304C322.972 238.416 325.273 241.242 330.44 241.242C335.589 241.242 339.602 238.984 339.602 238.984L340.168 266.779C340.168 266.779 322.405 267.943 318.38 267.375C314.378 266.779 312.083 265.083 311.509 260.546C310.938 256.017 310.348 207.739 310.348 207.739Z" fill="#FFE500"/>
<path d="M407.283 211.147L400.959 200.924L411.302 192.986L415.898 202.061L407.283 211.147Z" fill="#FFE500"/>
<path d="M506.518 215.678L516.828 211.715L509.362 194.115L498.49 199.802L506.518 215.678Z" fill="#FFE500"/>
<path d="M688.324 208.876C688.324 208.876 688.324 237.26 688.324 242.379C688.324 247.483 690.609 248.619 696.919 248.619C703.212 248.619 708.951 248.045 708.951 248.045C708.951 248.045 708.951 261.129 708.951 264.557C708.951 267.944 707.241 268.498 702.051 269.073C696.919 269.627 678.569 270.195 678.569 270.195C678.569 270.195 675.714 262.264 675.106 245.793C674.566 229.315 672.825 211.147 675.714 209.429C678.568 207.739 688.324 208.876 688.324 208.876Z" fill="#FFE500"/>
<path d="M769.153 213.981L779.509 207.171L776.067 196.948L765.725 200.363L769.153 213.981Z" fill="#FFE500"/>
<path d="M742.681 47.9926L740.967 46.6068C740.773 46.4576 736.261 42.8339 727.667 38.8247C715.945 33.3741 699.442 27.9178 675.651 34.0911C651.155 40.4401 641.805 64.9501 645.236 85.8762C646.237 92.1307 650.748 97.8175 656.398 102.659L651.168 128.102L652.711 129.279C653.484 129.868 671.663 143.633 690.505 141.842C704.88 140.47 726.619 138.407 726.619 118.299C726.619 112.958 724.918 108.617 722.275 105.059L742.681 47.9926Z" fill="#00011E"/>
<path d="M690.044 135.615C676.467 136.899 662.678 128.427 658.273 125.412C658.748 123.072 660.838 112.93 662.07 106.919C672.829 114.451 684.901 119.15 685.775 119.482L688.049 113.674C678.614 110.05 653.678 97.826 651.581 84.8634C649.173 70.1703 654.063 46.1335 677.385 40.0896C702.021 33.7 718.204 41.2185 725.118 44.4379C730.155 46.7834 733.478 48.8872 735.353 50.1587C734.147 53.5254 721.814 88.0299 717.518 100.045C710.183 94.3043 700.093 91.8161 693.427 91.3164L692.946 97.5294C693.216 97.5492 720.454 99.875 720.454 118.266C720.454 130.483 710.203 133.695 690.044 135.615Z" fill="#FFE500"/>
<path d="M572.766 40.1424L574.535 137.535L594.808 136.873C602.768 136.873 613.746 140.646 613.859 140.68L620.346 142.925C620.346 142.925 617.209 135.055 617.116 134.837C621.633 135.141 628.976 135.75 634.36 136.812C642.613 138.435 656.706 143.444 656.845 143.491L664.538 146.237L660.69 139.096C660.495 138.73 655.852 130.178 649.92 123.714C649.92 123.714 645.423 118.447 641.726 114.113C649.48 113.538 662.062 110.826 671.712 100.063C674.563 96.8784 676.012 93.4701 676.012 89.887C676.012 89.0557 675.937 88.2159 675.777 87.3648C673.435 74.646 654.503 63.8618 631.844 52.0904C608.62 39.9998 577.506 37.0997 576.19 36.9854L572.701 36.668L572.766 40.1424Z" fill="#00011E"/>
<path d="M579.107 43.5977C587.62 44.6736 611.012 48.2973 628.907 57.6003C644.308 65.6119 667.585 77.7158 669.566 88.4867C669.652 88.9392 669.692 89.3851 669.692 89.8395C669.692 91.9017 668.803 93.91 666.99 95.9184C654.53 109.812 635.494 107.96 635.306 107.94L627.487 107.109L645.243 127.914C647.245 130.084 649.104 132.565 650.655 134.837C645.915 133.329 640.046 131.578 635.573 130.705C628.258 129.259 618.011 128.623 614.548 128.441C611.352 120.429 606.926 109.34 606.926 109.34L601.074 111.619C601.074 111.619 606.667 125.649 609.569 132.923C605.338 131.814 599.711 130.638 594.787 130.638C594.787 130.638 585.025 130.957 580.702 131.105C580.597 125.425 579.227 49.9873 579.107 43.5977Z" fill="#FFE500"/>
<path d="M596.836 74.8359C596.836 74.8359 605.851 81.2454 609.297 84.6405C612.752 88.0337 614.893 94.0039 610.178 95.2887C605.432 96.5536 601.975 97.8449 601.975 97.8449C601.975 97.8449 600.719 93.166 599.431 88.0328C598.11 82.943 596.836 74.8359 596.836 74.8359Z" fill="#00011E"/>
<path d="M584.437 85.0197L568.248 90.5705L567.101 56.0273L562.791 57.9874L558.192 60.0903L554.777 30.1777L551.28 31.1101L521.331 39.0754C511.783 41.8612 494.719 45.8175 494.553 45.8581L491.889 46.4797L492.131 49.1719C492.224 50.2252 494.481 75.115 498.504 93.2902L508.953 137.118L511.896 136.544L549.177 129.735C567.674 126.422 586.452 125.245 586.64 125.225L590.032 125.022L584.437 85.0197Z" fill="#00011E"/>
<path d="M548.023 123.606C548.01 123.606 522.427 128.279 513.664 129.881C512.491 124.952 504.622 91.9568 504.622 91.9568C501.398 77.4403 499.306 58.1089 498.637 51.2998C503.823 50.0765 515.526 47.2567 523.079 45.0651C523.079 45.0651 541.559 40.15 549.31 38.0869C549.84 42.6987 551.554 57.7565 552.128 62.8341L532.909 71.6108L535.538 77.2627C535.538 77.2627 554.777 68.4935 561.094 65.6123C561.274 71.2311 561.789 86.85 561.995 92.7192L537.785 101.015L539.84 106.911C539.84 106.911 573.147 95.4908 579.224 93.4012C579.952 98.628 582.189 114.606 582.842 119.257C576.505 119.752 562.19 121.065 548.023 123.606Z" fill="#FFE500"/>
<path d="M428.516 63.7403L430.387 100.888C430.387 100.888 449.977 100.145 457.236 99.8602C453.285 107.128 436.41 138.138 436.41 138.138L443.305 136.44C443.397 136.42 452.466 134.235 467.446 133.14C482.42 132.046 489.836 132.566 489.915 132.573L493.811 132.857C493.811 132.857 490.615 110.632 489.809 104.986C495.547 105.336 517.488 106.662 517.488 106.662L516.154 64.0115L428.346 60.332L428.516 63.7403Z" fill="#00011E"/>
<path d="M435.178 66.8506C441.262 67.1141 505.049 69.7837 510.247 70.001C510.383 74.4022 511.028 94.9248 511.188 100.029C505.882 99.7104 482.69 98.3123 482.69 98.3123C482.69 98.3123 485.907 120.726 486.698 126.25C483.035 126.189 476.81 126.23 467.187 126.939C459.258 127.514 452.999 128.379 448.683 129.096C453.173 120.847 468.207 93.2188 468.207 93.2188C468.207 93.2188 441.535 94.2399 436.563 94.4289C436.339 89.9011 435.431 71.8346 435.178 66.8506Z" fill="#FFE500"/>
<path d="M386.136 23.5708C385.463 23.6388 369.616 25.342 356.295 29.3454C343.196 33.3139 327.055 39.0083 326.895 39.0612L322.316 40.6841C322.316 40.6841 360.332 79.9015 364.232 83.9229C361.067 86.9392 352.219 95.3504 352.219 95.3504C344.751 102.193 336.078 111.314 335.985 111.416L332.512 115.074L337.372 116.534C337.484 116.568 348.675 119.915 355.241 123.147L373.574 132.857L375.241 130.706C375.241 130.706 382.548 120.781 386.892 114.898C388.835 121.803 392.898 136.245 392.898 136.245L445.815 119.261L427.928 105.385C427.928 105.378 418.835 99.0837 413.822 95.6149C417.592 92.2746 425.115 86.0399 435.758 79.279C451.479 69.2241 476.502 56.8179 476.755 56.6961L483.831 53.1933L417.681 33.3621L416.353 34.6809C416.137 34.8915 410.913 40.1107 404.514 49.3192C401.973 52.9703 400.037 55.98 398.456 58.4947C395.826 48.9348 388.799 23.2949 388.799 23.2949L386.136 23.5708Z" fill="#00011E"/>
<path d="M358.252 35.276C367.881 32.3816 379.218 30.7114 384.262 30.0615C385.512 34.5987 396.501 74.6464 396.501 74.6464L400.25 67.8515C400.277 67.7977 403.696 61.6244 409.821 52.8211C414.131 46.6006 417.835 42.3808 419.662 40.3942C422.705 41.3076 456.278 51.3739 467.096 54.6207C458.412 59.0832 443.37 67.0353 432.468 73.9993C416.327 84.2564 407.096 93.3308 406.718 93.7086L404.06 96.3319L424.269 110.328C424.269 110.328 428.978 113.979 432.748 116.9C424.873 119.435 401.975 126.778 397.316 128.273C395.974 123.52 389.582 100.8 389.582 100.8C389.582 100.8 374.472 121.288 371.884 124.796C368.346 122.924 358.178 117.535 358.178 117.535C353.947 115.453 348.196 113.41 344.157 112.065C347.33 108.825 352.186 103.951 356.611 99.8933L373.306 84.0316L371.08 81.8268C371.08 81.8268 339.429 49.1757 333.736 43.3009C339.434 41.3332 349.49 37.9248 358.252 35.276Z" fill="#FFE500"/>
<path d="M348.876 125.054C348.856 124.952 346.653 114.431 346.653 104.106C346.653 93.315 346.08 86.0062 346.053 85.702L345.766 82.0849L342.204 82.903C341.883 82.9767 335.664 84.4305 326.82 87.4194C326.827 85.5934 326.889 83.4235 327.077 80.9353C327.077 80.9211 327.869 61.2326 327.869 61.2326L323.154 63.6802L313.743 68.3326C313.258 60.4825 311.967 38.3389 311.967 38.3389L307.945 39.9004L256.004 59.9885L257.264 146.86L261.229 145.724C261.447 145.657 283.103 139.463 302.82 135.562C322.533 131.647 345.94 128.821 346.176 128.793L349.584 128.387L348.876 125.054Z" fill="#00011E"/>
<path d="M301.577 129.3C286.656 132.255 270.675 136.494 263.438 138.483C263.339 131.376 262.418 67.9465 262.359 64.0725C265.788 62.7405 299.709 49.6221 306.208 47.1074C306.587 53.2203 307.67 70.6445 307.67 70.6445V71.1848L301.216 74.3768C301.216 74.3825 283.012 83.403 283.012 83.403L285.668 89.0492L304.165 79.8813C304.165 79.8813 312.104 75.9657 318.364 72.8625C318.172 76.0394 317.978 79.3126 317.978 79.3126C317.79 82.0172 317.725 84.3977 317.725 86.4126C317.725 88.0422 317.766 89.4072 317.825 90.503C305.521 95.8441 287.816 104.418 286.901 104.871L289.67 110.463C289.891 110.355 308.642 101.267 320.914 95.9735L322.229 95.5201C329.717 92.7012 336.188 90.794 339.992 89.7596C340.152 92.91 340.347 97.7513 340.347 103.959C340.347 111.457 341.399 118.779 342.103 122.871C334.987 123.789 317.231 126.189 301.577 129.3Z" fill="#FFE500"/>
<path d="M205.729 31.874L188.57 144.432L192.156 144.486C193.484 144.513 224.8 144.946 243.123 134.405C257.885 125.94 274.664 113.377 273.377 91.2192C272.097 70.2384 254.173 53.3347 239.36 42.8547C226.989 34.1185 210.372 29.5341 209.673 29.3376L206.254 28.4053L205.729 31.874Z" fill="#00011E"/>
<path d="M211.401 36.4043C216.752 38.1557 227.41 42.0703 235.704 47.9319C249.397 57.6213 265.965 73.0645 267.091 91.5835C267.132 92.2608 267.152 92.923 267.152 93.5786C267.152 111.002 253.481 121.261 239.961 129.015C226.586 136.711 204.486 138.015 195.885 138.225C196.878 131.687 210.417 42.8875 211.401 36.4043Z" fill="#FFE500"/>
<path d="M217.171 100.34L215.023 121.631C215.023 121.631 223.611 121.631 227.068 118.217C230.506 114.823 231.411 109.657 227.487 105.012C224.697 101.713 218.793 100.551 217.171 100.34Z" fill="#00011E"/>
<path d="M650.113 1.03468L617.291 5.00412L643.868 50.853L654.466 0.5L650.113 1.03468Z" fill="#00011E"/>
<path d="M646.552 7.73535C645.475 12.8601 642.929 24.9432 641.119 33.5235C636.683 25.8633 630.335 14.9157 627.508 10.0413C632.824 9.39889 641.559 8.34371 646.552 7.73535Z" fill="#FFE500"/>
</g>
<defs>
<clipPath id="clip0_126_1084">
<rect width="921" height="320" fill="white" transform="translate(0 0.5)"/>
</clipPath>
</defs>
</svg>
