<svg width="89" height="69" viewBox="0 0 89 69" fill="none" xmlns="http://www.w3.org/2000/svg">
<path d="M74.8871 6.64322C84.7536 21.2525 89.6262 37.7312 87.8047 56.7022C87.7971 56.7825 87.7556 56.8562 87.6901 56.9045C80.2183 62.4297 72.9794 65.783 65.8419 68.0065C65.7863 68.0236 65.7267 68.0226 65.6718 68.004C65.6168 67.9851 65.5689 67.9497 65.535 67.9021C63.886 65.5915 62.3877 63.1556 61.075 60.5975C60.9997 60.4468 61.0686 60.2654 61.2235 60.206C63.6031 59.3031 65.8658 58.221 68.0423 56.9398C68.2136 56.8385 68.2246 56.591 68.0662 56.4724C67.6043 56.1271 67.1467 55.7641 66.7089 55.4011C66.627 55.3341 66.5167 55.3208 66.4238 55.366C52.2941 61.9371 36.8156 61.9371 22.5189 55.366C22.426 55.3243 22.3157 55.3385 22.236 55.4045C21.7993 55.7674 21.3407 56.1271 20.8831 56.4724C20.7247 56.591 20.7377 56.8385 20.9103 56.9398C23.0868 58.1967 25.3495 59.3031 27.7256 60.2104C27.8796 60.2698 27.9527 60.4468 27.8763 60.5975C26.5921 63.1589 25.0938 65.5948 23.4143 67.9054C23.3411 67.9989 23.221 68.0418 23.1074 68.0065C16.0038 65.783 8.76482 62.4297 1.29305 56.9045C1.23087 56.8562 1.18607 56.7792 1.17948 56.6989C-0.342777 40.2893 2.75972 23.6741 14.085 6.63993C14.1125 6.59494 14.154 6.55964 14.2019 6.5388C19.7747 3.96317 25.7447 2.06821 31.9846 0.986134C32.0982 0.968578 32.2117 1.02125 32.2706 1.12256C33.0416 2.49724 33.9229 4.26016 34.5193 5.70086C41.0964 4.68901 47.7765 4.68901 54.4913 5.70086C55.0875 4.29089 55.9382 2.49724 56.706 1.12256C56.7332 1.07227 56.7756 1.03204 56.827 1.00753C56.8784 0.983024 56.9362 0.975527 56.992 0.986134C63.2352 2.0715 69.2053 3.96646 74.7736 6.5388C74.8226 6.55964 74.863 6.59494 74.8871 6.64322ZM37.863 37.8435C37.9317 32.9924 34.4198 28.9782 30.0114 28.9782C25.6388 28.9782 22.1607 32.9572 22.1607 37.8435C22.1607 42.7287 25.7076 46.7075 30.0114 46.7075C34.3848 46.7075 37.863 42.7287 37.863 37.8435ZM66.8912 37.8435C66.96 32.9924 63.448 28.9782 59.0407 28.9782C54.6671 28.9782 51.1889 32.9572 51.1889 37.8435C51.1889 42.7287 54.7358 46.7075 59.0407 46.7075C63.448 46.7075 66.8912 42.7287 66.8912 37.8435Z" fill="white"/>
</svg>
