<svg width="70" height="71" viewBox="0 0 70 71" fill="none" xmlns="http://www.w3.org/2000/svg">
<path fill-rule="evenodd" clip-rule="evenodd" d="M21.0949 0.71C24.7739 0.538182 25.9469 0.5 35.3184 0.5C44.6898 0.5 45.8628 0.541364 49.5386 0.71C53.2144 0.878636 55.7235 1.47364 57.919 2.33591C60.2179 3.21727 62.3036 4.595 64.0286 6.37682C65.785 8.12364 67.1399 10.2364 68.0055 12.5718C68.8586 14.7991 69.442 17.3445 69.6114 21.0673C69.7807 24.8059 69.8184 25.9959 69.8184 35.5C69.8184 45.0073 69.7776 46.1973 69.6114 49.9295C69.4451 53.6523 68.8586 56.1977 68.0055 58.425C67.1399 60.7607 65.7827 62.877 64.0286 64.6264C62.3036 66.4082 60.2179 67.7827 57.919 68.6609C55.7235 69.5264 53.2144 70.1182 49.5449 70.29C45.8628 70.4618 44.6898 70.5 35.3184 70.5C25.9469 70.5 24.7739 70.4586 21.0949 70.29C17.4254 70.1214 14.9163 69.5264 12.7209 68.6609C10.4185 67.7826 8.33252 66.4058 6.60809 64.6264C4.85291 62.8785 3.49466 60.7633 2.62804 58.4282C1.77809 56.2009 1.19472 53.6555 1.02536 49.9327C0.855996 46.1941 0.818359 45.0041 0.818359 35.5C0.818359 25.9927 0.859132 24.8027 1.02536 21.0736C1.19159 17.3445 1.77809 14.7991 2.62804 12.5718C3.49594 10.2366 4.85523 8.12145 6.61122 6.37364C8.33321 4.59341 10.4171 3.2155 12.7177 2.33591C14.9132 1.47364 17.4223 0.881818 21.0918 0.71H21.0949ZM49.2595 7.01C45.6213 6.84136 44.5299 6.80636 35.3184 6.80636C26.1069 6.80636 25.0154 6.84136 21.3772 7.01C18.0119 7.16591 16.1865 7.73545 14.9696 8.21591C13.3607 8.85227 12.2096 9.60636 11.0021 10.8314C9.8575 11.9611 8.97661 13.3364 8.42404 14.8564C7.95045 16.0909 7.38904 17.9427 7.23536 21.3568C7.06913 25.0477 7.03463 26.155 7.03463 35.5C7.03463 44.845 7.06913 45.9523 7.23536 49.6432C7.38904 53.0573 7.95045 54.9091 8.42404 56.1436C8.97604 57.6614 9.85736 59.0391 11.0021 60.1686C12.1155 61.33 13.4736 62.2241 14.9696 62.7841C16.1865 63.2645 18.0119 63.8341 21.3772 63.99C25.0154 64.1586 26.1037 64.1936 35.3184 64.1936C44.533 64.1936 45.6213 64.1586 49.2595 63.99C52.6248 63.8341 54.4502 63.2645 55.6671 62.7841C57.276 62.1477 58.4271 61.3936 59.6346 60.1686C60.7794 59.0391 61.6607 57.6614 62.2127 56.1436C62.6863 54.9091 63.2477 53.0573 63.4014 49.6432C63.5676 45.9523 63.6021 44.845 63.6021 35.5C63.6021 26.155 63.5676 25.0477 63.4014 21.3568C63.2477 17.9427 62.6863 16.0909 62.2127 14.8564C61.5854 13.2241 60.8421 12.0564 59.6346 10.8314C58.5209 9.67023 57.1653 8.77658 55.6671 8.21591C54.4502 7.73545 52.6248 7.16591 49.2595 7.01ZM30.9118 46.2895C33.3727 47.3288 36.113 47.4691 38.6646 46.6864C41.2162 45.9037 43.4208 44.2466 44.9019 41.998C46.3829 39.7495 47.0485 37.0491 46.785 34.3581C46.5216 31.667 45.3453 29.1522 43.4572 27.2432C42.2536 26.0229 40.7982 25.0885 39.1959 24.5073C37.5936 23.9261 35.8842 23.7125 34.1908 23.882C32.4974 24.0514 30.8621 24.5997 29.4026 25.4872C27.9431 26.3748 26.6957 27.5796 25.7503 29.015C24.8048 30.4503 24.1849 32.0805 23.935 33.7881C23.6851 35.4956 23.8115 37.2382 24.3051 38.8903C24.7988 40.5424 25.6473 42.0628 26.7897 43.3423C27.9321 44.6217 29.3399 45.6283 30.9118 46.2895ZM22.7792 22.7791C24.4258 21.1086 26.3807 19.7834 28.5322 18.8793C30.6837 17.9752 32.9896 17.5099 35.3184 17.5099C37.6471 17.5099 39.953 17.9752 42.1045 18.8793C44.256 19.7834 46.2109 21.1086 47.8575 22.7791C49.5042 24.4496 50.8104 26.4328 51.7016 28.6155C52.5928 30.7981 53.0514 33.1375 53.0514 35.5C53.0514 37.8625 52.5928 40.2018 51.7016 42.3845C50.8104 44.5672 49.5042 46.5504 47.8575 48.2209C44.5319 51.5947 40.0215 53.4901 35.3184 53.4901C30.6153 53.4901 26.1048 51.5947 22.7792 48.2209C19.4536 44.8471 17.5853 40.2713 17.5853 35.5C17.5853 30.7287 19.4536 26.1529 22.7792 22.7791ZM56.9844 20.1891C57.3924 19.7986 57.7191 19.329 57.945 18.8081C58.171 18.2872 58.2916 17.7256 58.2998 17.1566C58.308 16.5876 58.2035 16.0226 57.9926 15.4953C57.7818 14.968 57.4687 14.4889 57.0721 14.0865C56.6754 13.6841 56.2032 13.3665 55.6834 13.1526C55.1636 12.9386 54.6067 12.8326 54.0458 12.8409C53.4849 12.8492 52.9313 12.9716 52.4179 13.2009C51.9044 13.4301 51.4416 13.7615 51.0566 14.1755C50.308 14.9805 49.8982 16.0499 49.9141 17.1566C49.93 18.2633 50.3704 19.3201 51.1418 20.1027C51.9132 20.8853 52.9549 21.3321 54.0458 21.3482C55.1367 21.3644 56.1908 20.9486 56.9844 20.1891Z" fill="#FDFDFD"/>
</svg>
