<svg width="60" height="59" viewBox="0 0 60 59" fill="none" xmlns="http://www.w3.org/2000/svg">
<path fill-rule="evenodd" clip-rule="evenodd" d="M22.7339 20.5586H33.6902V26.0161C35.2685 22.8773 39.3159 20.0571 45.3958 20.0571C57.0513 20.0571 59.8184 26.3052 59.8184 37.7689V59H48.0184V40.3796C48.0184 33.8512 46.4401 30.1697 42.4222 30.1697C36.8497 30.1697 34.5339 34.1374 34.5339 40.3767V59H22.7339V20.5586V20.5586ZM2.49986 58.4985H14.2999V20.0571H2.49986V58.4985V58.4985ZM15.9902 7.5225C15.9906 8.51156 15.7945 9.49084 15.4132 10.4034C15.0318 11.316 14.4729 12.1437 13.7689 12.8384C12.3422 14.2562 10.4112 15.0499 8.39986 15.045C6.39206 15.0437 4.46548 14.252 3.03676 12.8414C2.33528 12.1443 1.77825 11.3157 1.39757 10.403C1.0169 9.49027 0.820068 8.51141 0.818359 7.5225C0.818359 5.52535 1.61486 3.61375 3.03971 2.20365C4.46717 0.791067 6.39457 -0.000882672 8.40281 7.3828e-07C10.4147 7.3828e-07 12.344 0.793551 13.7689 2.20365C15.1908 3.61375 15.9902 5.52535 15.9902 7.5225Z" fill="#FDFDFD"/>
</svg>
