<svg width="370" height="101" viewBox="0 0 370 101" fill="none" xmlns="http://www.w3.org/2000/svg">
<g filter="url(#filter0_d_126_1126)">
<rect x="14.5" y="2" width="341" height="68" rx="26.5" fill="#FF8000" stroke="black" stroke-width="3"/>
<path d="M75.6366 18.4616C75.5566 22.115 75.49 25.1283 75.4366 27.5016C75.41 29.875 75.3833 31.875 75.3566 33.5016C75.33 35.1016 75.3166 36.4483 75.3166 37.5416C75.3166 38.635 75.3166 39.7416 75.3166 40.8616L81.5966 40.6216C81.65 41.5016 81.69 42.3683 81.7166 43.2216C81.7433 44.075 81.7566 44.9283 81.7566 45.7816C81.7566 46.6616 81.7433 47.555 81.7166 48.4616C81.69 49.3416 81.65 50.2483 81.5966 51.1816H68.6766C68.7566 47.4483 68.81 43.6216 68.8366 39.7016C68.89 35.7816 68.9166 31.955 68.9166 28.2216C68.9166 26.4883 68.9166 24.8083 68.9166 23.1816C68.9166 21.555 68.9033 19.9816 68.8766 18.4616H75.6366ZM98.2051 51.3016C97.4584 51.275 96.4717 51.2483 95.2451 51.2216C94.0184 51.2216 92.6984 51.2083 91.2851 51.1816C89.8984 51.1816 88.4984 51.1816 87.0851 51.1816C85.6984 51.1816 84.4717 51.1816 83.4051 51.1816C83.4317 50.6216 83.4451 49.875 83.4451 48.9416C83.4717 48.0083 83.4851 46.9416 83.4851 45.7416C83.4851 44.5416 83.4851 43.2483 83.4851 41.8616C83.4851 40.4483 83.4851 38.995 83.4851 37.5016C83.4851 35.475 83.4717 33.4483 83.4451 31.4216C83.4451 29.395 83.4451 27.515 83.4451 25.7816C83.4451 24.0216 83.4317 22.5016 83.4051 21.2216C83.4051 19.9416 83.4051 19.035 83.4051 18.5016C84.4451 18.5016 85.5917 18.5016 86.8451 18.5016C88.0984 18.5016 89.3784 18.5016 90.6851 18.5016C91.9917 18.475 93.2717 18.4483 94.5251 18.4216C95.7784 18.395 96.9517 18.3683 98.0451 18.3416C98.0451 18.6883 98.0451 18.995 98.0451 19.2616C98.0717 19.5016 98.0851 19.8483 98.0851 20.3016C98.0851 20.6216 98.0717 21.0083 98.0451 21.4616C98.0451 21.8883 98.0317 22.3416 98.0051 22.8216C98.0051 23.275 97.9917 23.7416 97.9651 24.2216C97.9651 24.675 97.9517 25.1016 97.9251 25.5016H89.8851V30.1416H96.8851V36.1016H89.8851V40.5816H98.0451C98.0717 41.195 98.0984 41.8216 98.1251 42.4616C98.1517 43.1016 98.1651 43.8216 98.1651 44.6216C98.1917 45.4216 98.2051 46.3683 98.2051 47.4616C98.2051 48.5283 98.2051 49.8083 98.2051 51.3016ZM98.7266 51.1816L104.647 18.4616H114.527L120.407 51.1816H113.647L112.647 44.6216H106.487L105.527 51.1816H98.7266ZM107.567 37.4616H111.567L109.567 24.2616L107.567 37.4616ZM121.214 18.5816C122.734 18.3683 124.187 18.2216 125.574 18.1416C126.96 18.035 128.147 17.9816 129.134 17.9816C131.48 17.9816 133.64 18.3016 135.614 18.9416C137.587 19.5816 139.32 20.7283 140.814 22.3816C142.174 23.9283 143.187 25.8083 143.854 28.0216C144.52 30.2083 144.854 32.5683 144.854 35.1016C144.854 37.5816 144.534 39.835 143.894 41.8616C143.254 43.8883 142.267 45.6216 140.934 47.0616C139.627 48.5016 137.974 49.6216 135.974 50.4216C133.974 51.2216 131.614 51.6216 128.894 51.6216C128.28 51.6216 127.28 51.595 125.894 51.5416C124.534 51.4883 123.027 51.3683 121.374 51.1816C121.4 49.955 121.414 48.7683 121.414 47.6216C121.44 46.4483 121.454 45.3016 121.454 44.1816C121.48 43.035 121.494 41.8883 121.494 40.7416C121.494 39.595 121.494 38.4083 121.494 37.1816C121.494 33.6883 121.467 30.3416 121.414 27.1416C121.387 23.9416 121.32 21.0883 121.214 18.5816ZM128.974 24.6216C128.707 24.6216 128.454 24.635 128.214 24.6616C128 24.6883 127.787 24.715 127.574 24.7416C127.547 25.995 127.534 27.2483 127.534 28.5016C127.534 29.7283 127.534 30.9683 127.534 32.2216C127.534 32.835 127.534 33.4883 127.534 34.1816C127.56 34.875 127.574 35.595 127.574 36.3416C127.6 37.0616 127.627 37.795 127.654 38.5416C127.68 39.2616 127.694 39.9416 127.694 40.5816C127.934 40.635 128.174 40.675 128.414 40.7016C128.654 40.7016 128.867 40.7016 129.054 40.7016C130.04 40.7016 130.947 40.4883 131.774 40.0616C132.627 39.635 133.36 39.0616 133.974 38.3416C134.614 37.595 135.107 36.7283 135.454 35.7416C135.8 34.755 135.974 33.7016 135.974 32.5816C135.974 31.755 135.854 30.875 135.614 29.9416C135.4 28.9816 135.014 28.115 134.454 27.3416C133.92 26.5683 133.2 25.9283 132.294 25.4216C131.414 24.8883 130.307 24.6216 128.974 24.6216ZM161.174 51.3016C160.427 51.275 159.44 51.2483 158.214 51.2216C156.987 51.2216 155.667 51.2083 154.254 51.1816C152.867 51.1816 151.467 51.1816 150.054 51.1816C148.667 51.1816 147.44 51.1816 146.374 51.1816C146.4 50.6216 146.414 49.875 146.414 48.9416C146.44 48.0083 146.454 46.9416 146.454 45.7416C146.454 44.5416 146.454 43.2483 146.454 41.8616C146.454 40.4483 146.454 38.995 146.454 37.5016C146.454 35.475 146.44 33.4483 146.414 31.4216C146.414 29.395 146.414 27.515 146.414 25.7816C146.414 24.0216 146.4 22.5016 146.374 21.2216C146.374 19.9416 146.374 19.035 146.374 18.5016C147.414 18.5016 148.56 18.5016 149.814 18.5016C151.067 18.5016 152.347 18.5016 153.654 18.5016C154.96 18.475 156.24 18.4483 157.494 18.4216C158.747 18.395 159.92 18.3683 161.014 18.3416C161.014 18.6883 161.014 18.995 161.014 19.2616C161.04 19.5016 161.054 19.8483 161.054 20.3016C161.054 20.6216 161.04 21.0083 161.014 21.4616C161.014 21.8883 161 22.3416 160.974 22.8216C160.974 23.275 160.96 23.7416 160.934 24.2216C160.934 24.675 160.92 25.1016 160.894 25.5016H152.854V30.1416H159.854V36.1016H152.854V40.5816H161.014C161.04 41.195 161.067 41.8216 161.094 42.4616C161.12 43.1016 161.134 43.8216 161.134 44.6216C161.16 45.4216 161.174 46.3683 161.174 47.4616C161.174 48.5283 161.174 49.8083 161.174 51.3016ZM162.935 51.1816C163.015 48.6483 163.069 46.1283 163.095 43.6216C163.122 41.0883 163.135 38.6883 163.135 36.4216C163.135 33.195 163.109 30.1283 163.055 27.2216C163.029 24.315 162.989 21.395 162.935 18.4616C164.242 18.3283 165.549 18.2216 166.855 18.1416C168.189 18.035 169.535 17.9816 170.895 17.9816C172.842 17.9816 174.669 18.1283 176.375 18.4216C178.082 18.6883 179.562 19.2083 180.815 19.9816C182.069 20.7283 183.055 21.7683 183.775 23.1016C184.522 24.435 184.895 26.155 184.895 28.2616C184.895 30.875 184.349 32.9283 183.255 34.4216C182.189 35.915 180.735 37.035 178.895 37.7816L185.415 51.1816H178.295L172.975 38.9816C171.882 39.0616 170.749 39.1016 169.575 39.1016C169.575 41.155 169.589 43.1683 169.615 45.1416C169.642 47.115 169.722 49.1283 169.855 51.1816H162.935ZM169.575 33.0216C170.402 33.1016 171.162 33.1416 171.855 33.1416C173.669 33.1416 174.949 32.8083 175.695 32.1416C176.469 31.4483 176.855 30.4216 176.855 29.0616C176.855 28.235 176.735 27.5683 176.495 27.0616C176.282 26.555 175.975 26.155 175.575 25.8616C175.202 25.5683 174.749 25.3683 174.215 25.2616C173.709 25.155 173.162 25.1016 172.575 25.1016C172.149 25.1016 171.669 25.1283 171.135 25.1816C170.629 25.2083 170.109 25.2616 169.575 25.3416V33.0216ZM192.81 29.0616C193.183 29.115 193.49 29.1416 193.73 29.1416C193.97 29.1416 194.223 29.1416 194.49 29.1416C195.93 29.1416 197.077 28.875 197.93 28.3416C198.783 27.8083 199.21 27.1016 199.21 26.2216C199.21 25.4216 198.837 24.8083 198.09 24.3816C197.37 23.955 196.303 23.7416 194.89 23.7416C194.437 23.7416 194.023 23.7683 193.65 23.8216C193.303 23.8483 193.023 23.9016 192.81 23.9816V29.0616ZM186.53 51.1816C186.557 49.955 186.57 48.7683 186.57 47.6216C186.597 46.4483 186.61 45.3016 186.61 44.1816C186.637 43.035 186.65 41.8883 186.65 40.7416C186.65 39.595 186.65 38.4083 186.65 37.1816C186.65 33.6883 186.623 30.3416 186.57 27.1416C186.543 23.9416 186.477 21.0883 186.37 18.5816C187.863 18.3683 189.397 18.2216 190.97 18.1416C192.543 18.035 193.957 17.9816 195.21 17.9816C202.623 17.9816 206.33 20.1283 206.33 24.4216C206.33 26.1016 205.837 27.5416 204.85 28.7416C203.89 29.915 202.61 30.635 201.01 30.9016C203.597 31.3816 205.49 32.3816 206.69 33.9016C207.89 35.395 208.49 37.515 208.49 40.2616C208.49 44.1283 207.29 46.995 204.89 48.8616C202.49 50.7016 198.757 51.6216 193.69 51.6216C192.703 51.6216 191.597 51.5816 190.37 51.5016C189.17 51.4483 187.89 51.3416 186.53 51.1816ZM192.81 40.4216C193.077 40.5016 193.477 40.5683 194.01 40.6216C194.543 40.675 195.063 40.7016 195.57 40.7016C197.25 40.7016 198.517 40.435 199.37 39.9016C200.25 39.3683 200.69 38.6083 200.69 37.6216C200.69 36.6083 200.223 35.835 199.29 35.3016C198.383 34.7683 197.117 34.5016 195.49 34.5016C195.143 34.5016 194.757 34.515 194.33 34.5416C193.93 34.5683 193.423 34.6083 192.81 34.6616V40.4216ZM220.929 17.9816C224.903 17.9816 227.836 19.395 229.729 22.2216C231.623 25.0483 232.569 29.155 232.569 34.5416C232.569 40.0083 231.636 44.2216 229.769 47.1816C227.929 50.1416 224.983 51.6216 220.929 51.6216C218.929 51.6216 217.196 51.2483 215.729 50.5016C214.263 49.7283 213.049 48.6216 212.089 47.1816C211.129 45.715 210.423 43.9283 209.969 41.8216C209.516 39.6883 209.289 37.2616 209.289 34.5416C209.289 29.075 210.236 24.955 212.129 22.1816C214.023 19.3816 216.956 17.9816 220.929 17.9816ZM220.929 41.3016C221.783 41.3016 222.529 41.115 223.169 40.7416C223.836 40.3416 224.383 39.8083 224.809 39.1416C225.236 38.4483 225.556 37.635 225.769 36.7016C225.983 35.7416 226.089 34.6883 226.089 33.5416C226.089 32.395 225.983 31.3416 225.769 30.3816C225.556 29.395 225.236 28.5416 224.809 27.8216C224.383 27.1016 223.836 26.5416 223.169 26.1416C222.529 25.7416 221.783 25.5416 220.929 25.5416C220.076 25.5416 219.329 25.755 218.689 26.1816C218.076 26.5816 217.543 27.1416 217.089 27.8616C216.663 28.5816 216.343 29.435 216.129 30.4216C215.916 31.3816 215.809 32.4216 215.809 33.5416C215.809 34.6883 215.916 35.7416 216.129 36.7016C216.343 37.635 216.663 38.4483 217.089 39.1416C217.543 39.8083 218.076 40.3416 218.689 40.7416C219.329 41.115 220.076 41.3016 220.929 41.3016ZM232.281 51.1816L238.201 18.4616H248.081L253.961 51.1816H247.201L246.201 44.6216H240.041L239.081 51.1816H232.281ZM241.121 37.4616H245.121L243.121 24.2616L241.121 37.4616ZM254.889 51.1816C254.969 48.6483 255.022 46.1283 255.049 43.6216C255.075 41.0883 255.089 38.6883 255.089 36.4216C255.089 33.195 255.062 30.1283 255.009 27.2216C254.982 24.315 254.942 21.395 254.889 18.4616C256.195 18.3283 257.502 18.2216 258.809 18.1416C260.142 18.035 261.489 17.9816 262.849 17.9816C264.795 17.9816 266.622 18.1283 268.329 18.4216C270.035 18.6883 271.515 19.2083 272.769 19.9816C274.022 20.7283 275.009 21.7683 275.729 23.1016C276.475 24.435 276.849 26.155 276.849 28.2616C276.849 30.875 276.302 32.9283 275.209 34.4216C274.142 35.915 272.689 37.035 270.849 37.7816L277.369 51.1816H270.249L264.929 38.9816C263.835 39.0616 262.702 39.1016 261.529 39.1016C261.529 41.155 261.542 43.1683 261.569 45.1416C261.595 47.115 261.675 49.1283 261.809 51.1816H254.889ZM261.529 33.0216C262.355 33.1016 263.115 33.1416 263.809 33.1416C265.622 33.1416 266.902 32.8083 267.649 32.1416C268.422 31.4483 268.809 30.4216 268.809 29.0616C268.809 28.235 268.689 27.5683 268.449 27.0616C268.235 26.555 267.929 26.155 267.529 25.8616C267.155 25.5683 266.702 25.3683 266.169 25.2616C265.662 25.155 265.115 25.1016 264.529 25.1016C264.102 25.1016 263.622 25.1283 263.089 25.1816C262.582 25.2083 262.062 25.2616 261.529 25.3416V33.0216ZM278.323 18.5816C279.843 18.3683 281.297 18.2216 282.683 18.1416C284.07 18.035 285.257 17.9816 286.243 17.9816C288.59 17.9816 290.75 18.3016 292.723 18.9416C294.697 19.5816 296.43 20.7283 297.923 22.3816C299.283 23.9283 300.297 25.8083 300.963 28.0216C301.63 30.2083 301.963 32.5683 301.963 35.1016C301.963 37.5816 301.643 39.835 301.003 41.8616C300.363 43.8883 299.377 45.6216 298.043 47.0616C296.737 48.5016 295.083 49.6216 293.083 50.4216C291.083 51.2216 288.723 51.6216 286.003 51.6216C285.39 51.6216 284.39 51.595 283.003 51.5416C281.643 51.4883 280.137 51.3683 278.483 51.1816C278.51 49.955 278.523 48.7683 278.523 47.6216C278.55 46.4483 278.563 45.3016 278.563 44.1816C278.59 43.035 278.603 41.8883 278.603 40.7416C278.603 39.595 278.603 38.4083 278.603 37.1816C278.603 33.6883 278.577 30.3416 278.523 27.1416C278.497 23.9416 278.43 21.0883 278.323 18.5816ZM286.083 24.6216C285.817 24.6216 285.563 24.635 285.323 24.6616C285.11 24.6883 284.897 24.715 284.683 24.7416C284.657 25.995 284.643 27.2483 284.643 28.5016C284.643 29.7283 284.643 30.9683 284.643 32.2216C284.643 32.835 284.643 33.4883 284.643 34.1816C284.67 34.875 284.683 35.595 284.683 36.3416C284.71 37.0616 284.737 37.795 284.763 38.5416C284.79 39.2616 284.803 39.9416 284.803 40.5816C285.043 40.635 285.283 40.675 285.523 40.7016C285.763 40.7016 285.977 40.7016 286.163 40.7016C287.15 40.7016 288.057 40.4883 288.883 40.0616C289.737 39.635 290.47 39.0616 291.083 38.3416C291.723 37.595 292.217 36.7283 292.563 35.7416C292.91 34.755 293.083 33.7016 293.083 32.5816C293.083 31.755 292.963 30.875 292.723 29.9416C292.51 28.9816 292.123 28.115 291.563 27.3416C291.03 26.5683 290.31 25.9283 289.403 25.4216C288.523 24.8883 287.417 24.6216 286.083 24.6216Z" fill="white"/>
</g>
<defs>
<filter id="filter0_d_126_1126" x="0.1" y="0.5" width="369.8" height="99.9" filterUnits="userSpaceOnUse" color-interpolation-filters="sRGB">
<feFlood flood-opacity="0" result="BackgroundImageFix"/>
<feColorMatrix in="SourceAlpha" type="matrix" values="0 0 0 0 0 0 0 0 0 0 0 0 0 0 0 0 0 0 127 0" result="hardAlpha"/>
<feOffset dy="16"/>
<feGaussianBlur stdDeviation="6.45"/>
<feComposite in2="hardAlpha" operator="out"/>
<feColorMatrix type="matrix" values="0 0 0 0 0 0 0 0 0 0 0 0 0 0 0 0 0 0 0.25 0"/>
<feBlend mode="normal" in2="BackgroundImageFix" result="effect1_dropShadow_126_1126"/>
<feBlend mode="normal" in="SourceGraphic" in2="effect1_dropShadow_126_1126" result="shape"/>
</filter>
</defs>
</svg>
