<svg width="562" height="107" viewBox="0 0 562 107" fill="none" xmlns="http://www.w3.org/2000/svg">
<g filter="url(#filter0_d_126_1126)">
<rect x="14.5" y="2" width="533" height="74.5" rx="26.5" fill="#FF8000" stroke="black" stroke-width="3"/>
<path d="M46.9146 37.36C47.3226 37.4733 47.7079 37.5527 48.0706 37.598C48.4559 37.6207 48.7846 37.632 49.0566 37.632C49.4873 37.632 49.8953 37.5867 50.2806 37.496C50.6886 37.3827 51.0399 37.2013 51.3346 36.952C51.6293 36.7027 51.8673 36.374 52.0486 35.966C52.2299 35.5353 52.3206 34.9913 52.3206 34.334C52.3206 33.654 52.2186 33.0987 52.0146 32.668C51.8333 32.2147 51.5839 31.8633 51.2666 31.614C50.9493 31.3647 50.5753 31.1947 50.1446 31.104C49.7366 31.0133 49.3059 30.968 48.8526 30.968C48.1953 30.968 47.5493 31.036 46.9146 31.172V37.36ZM41.1006 53C41.1686 50.8467 41.2139 48.7047 41.2366 46.574C41.2593 44.4207 41.2706 42.3807 41.2706 40.454C41.2706 37.7113 41.2479 35.1047 41.2026 32.634C41.1799 30.1633 41.1459 27.6813 41.1006 25.188C42.2113 25.0747 43.3219 24.984 44.4326 24.916C45.5659 24.8253 46.6766 24.78 47.7646 24.78C49.3286 24.78 50.7906 24.9047 52.1506 25.154C53.5106 25.4033 54.6893 25.868 55.6866 26.548C56.7066 27.2053 57.5113 28.1347 58.1006 29.336C58.6899 30.5147 58.9846 32.0333 58.9846 33.892C58.9846 35.6147 58.7353 37.088 58.2366 38.312C57.7379 39.5133 57.0353 40.4993 56.1286 41.27C55.2446 42.018 54.1793 42.562 52.9326 42.902C51.6859 43.242 50.3033 43.412 48.7846 43.412C48.3993 43.412 48.0593 43.4007 47.7646 43.378C47.4926 43.3553 47.1866 43.3213 46.8466 43.276C46.8466 44.908 46.8579 46.5287 46.8806 48.138C46.9033 49.7473 46.9713 51.368 47.0846 53H41.1006ZM60.0596 53C60.1276 50.8467 60.1729 48.7047 60.1956 46.574C60.2183 44.4207 60.2296 42.3807 60.2296 40.454C60.2296 37.7113 60.2069 35.1047 60.1616 32.634C60.1389 30.1633 60.1049 27.6813 60.0596 25.188C61.1703 25.0747 62.2809 24.984 63.3916 24.916C64.5249 24.8253 65.6696 24.78 66.8256 24.78C68.4803 24.78 70.0329 24.9047 71.4836 25.154C72.9343 25.3807 74.1923 25.8227 75.2576 26.48C76.3229 27.1147 77.1616 27.9987 77.7736 29.132C78.4083 30.2653 78.7256 31.7273 78.7256 33.518C78.7256 35.7393 78.2609 37.4847 77.3316 38.754C76.4249 40.0233 75.1896 40.9753 73.6256 41.61L79.1676 53H73.1156L68.5936 42.63C67.6643 42.698 66.7009 42.732 65.7036 42.732C65.7036 44.4773 65.7149 46.1887 65.7376 47.866C65.7603 49.5433 65.8283 51.2547 65.9416 53H60.0596ZM65.7036 37.564C66.4063 37.632 67.0523 37.666 67.6416 37.666C69.1829 37.666 70.2709 37.3827 70.9056 36.816C71.5629 36.2267 71.8916 35.354 71.8916 34.198C71.8916 33.4953 71.7896 32.9287 71.5856 32.498C71.4043 32.0673 71.1436 31.7273 70.8036 31.478C70.4863 31.2287 70.1009 31.0587 69.6476 30.968C69.2169 30.8773 68.7523 30.832 68.2536 30.832C67.8909 30.832 67.4829 30.8547 67.0296 30.9C66.5989 30.9227 66.1569 30.968 65.7036 31.036V37.564ZM89.2666 24.78C92.644 24.78 95.1373 25.9813 96.7467 28.384C98.356 30.7867 99.1606 34.2773 99.1606 38.856C99.1606 43.5027 98.3673 47.084 96.7807 49.6C95.2166 52.116 92.712 53.374 89.2666 53.374C87.5666 53.374 86.0933 53.0567 84.8466 52.422C83.6 51.7647 82.5686 50.824 81.7526 49.6C80.9366 48.3533 80.336 46.8347 79.9506 45.044C79.5653 43.2307 79.3726 41.168 79.3726 38.856C79.3726 34.2093 80.1773 30.7073 81.7866 28.35C83.396 25.97 85.8893 24.78 89.2666 24.78ZM89.2666 44.602C89.992 44.602 90.6266 44.4433 91.1706 44.126C91.7373 43.786 92.202 43.3327 92.5646 42.766C92.9273 42.1767 93.1993 41.4853 93.3806 40.692C93.562 39.876 93.6526 38.9807 93.6526 38.006C93.6526 37.0313 93.562 36.136 93.3806 35.32C93.1993 34.4813 92.9273 33.756 92.5646 33.144C92.202 32.532 91.7373 32.056 91.1706 31.716C90.6266 31.376 89.992 31.206 89.2666 31.206C88.5413 31.206 87.9066 31.3873 87.3626 31.75C86.8413 32.09 86.388 32.566 86.0026 33.178C85.64 33.79 85.368 34.5153 85.1866 35.354C85.0053 36.17 84.9146 37.054 84.9146 38.006C84.9146 38.9807 85.0053 39.876 85.1866 40.692C85.368 41.4853 85.64 42.1767 86.0026 42.766C86.388 43.3327 86.8413 43.786 87.3626 44.126C87.9066 44.4433 88.5413 44.602 89.2666 44.602ZM117.228 35.966L112.842 51.81H109.68L105.566 36.408C105.589 39.1733 105.634 41.9613 105.702 44.772C105.793 47.5827 105.861 50.3253 105.906 53H100.534C100.58 50.6653 100.614 48.3533 100.636 46.064C100.659 43.752 100.67 41.4287 100.67 39.094C100.67 36.7593 100.659 34.4473 100.636 32.158C100.614 29.846 100.58 27.5227 100.534 25.188H107.81L111.414 41.134L115.46 25.188H122.328C122.26 29.812 122.226 34.4473 122.226 39.094C122.226 43.7407 122.26 48.376 122.328 53H116.888L117.228 35.966ZM130.022 37.36C130.43 37.4733 130.815 37.5527 131.178 37.598C131.563 37.6207 131.892 37.632 132.164 37.632C132.595 37.632 133.003 37.5867 133.388 37.496C133.796 37.3827 134.147 37.2013 134.442 36.952C134.737 36.7027 134.975 36.374 135.156 35.966C135.337 35.5353 135.428 34.9913 135.428 34.334C135.428 33.654 135.326 33.0987 135.122 32.668C134.941 32.2147 134.691 31.8633 134.374 31.614C134.057 31.3647 133.683 31.1947 133.252 31.104C132.844 31.0133 132.413 30.968 131.96 30.968C131.303 30.968 130.657 31.036 130.022 31.172V37.36ZM124.208 53C124.276 50.8467 124.321 48.7047 124.344 46.574C124.367 44.4207 124.378 42.3807 124.378 40.454C124.378 37.7113 124.355 35.1047 124.31 32.634C124.287 30.1633 124.253 27.6813 124.208 25.188C125.319 25.0747 126.429 24.984 127.54 24.916C128.673 24.8253 129.784 24.78 130.872 24.78C132.436 24.78 133.898 24.9047 135.258 25.154C136.618 25.4033 137.797 25.868 138.794 26.548C139.814 27.2053 140.619 28.1347 141.208 29.336C141.797 30.5147 142.092 32.0333 142.092 33.892C142.092 35.6147 141.843 37.088 141.344 38.312C140.845 39.5133 140.143 40.4993 139.236 41.27C138.352 42.018 137.287 42.562 136.04 42.902C134.793 43.242 133.411 43.412 131.892 43.412C131.507 43.412 131.167 43.4007 130.872 43.378C130.6 43.3553 130.294 43.3213 129.954 43.276C129.954 44.908 129.965 46.5287 129.988 48.138C130.011 49.7473 130.079 51.368 130.192 53H124.208ZM156.121 31.478H152.211C152.166 33.4953 152.132 35.5467 152.109 37.632C152.086 39.6947 152.075 41.9273 152.075 44.33C152.075 45.8713 152.075 47.118 152.075 48.07C152.075 48.9993 152.075 49.77 152.075 50.382C152.075 50.9713 152.075 51.4587 152.075 51.844C152.098 52.2067 152.109 52.592 152.109 53H146.397C146.42 52.0027 146.442 50.9713 146.465 49.906C146.488 48.818 146.499 47.6507 146.499 46.404C146.522 45.1347 146.533 43.7747 146.533 42.324C146.556 40.8507 146.567 39.23 146.567 37.462C146.567 36.17 146.567 35.048 146.567 34.096C146.567 33.144 146.556 32.2713 146.533 31.478H142.623V25.188H156.121V31.478ZM173.677 53.102C173.043 53.0793 172.204 53.0567 171.161 53.034C170.119 53.034 168.997 53.0227 167.795 53C166.617 53 165.427 53 164.225 53C163.047 53 162.004 53 161.097 53C161.12 52.524 161.131 51.8893 161.131 51.096C161.154 50.3027 161.165 49.396 161.165 48.376C161.165 47.356 161.165 46.2567 161.165 45.078C161.165 43.8767 161.165 42.6413 161.165 41.372C161.165 39.6493 161.154 37.9267 161.131 36.204C161.131 34.4813 161.131 32.8833 161.131 31.41C161.131 29.914 161.12 28.622 161.097 27.534C161.097 26.446 161.097 25.6753 161.097 25.222C161.981 25.222 162.956 25.222 164.021 25.222C165.087 25.222 166.175 25.222 167.285 25.222C168.396 25.1993 169.484 25.1767 170.549 25.154C171.615 25.1313 172.612 25.1087 173.541 25.086C173.541 25.3807 173.541 25.6413 173.541 25.868C173.564 26.072 173.575 26.3667 173.575 26.752C173.575 27.024 173.564 27.3527 173.541 27.738C173.541 28.1007 173.53 28.486 173.507 28.894C173.507 29.2793 173.496 29.676 173.473 30.084C173.473 30.4693 173.462 30.832 173.439 31.172H166.605V35.116H172.555V40.182H166.605V43.99H173.541C173.564 44.5113 173.587 45.044 173.609 45.588C173.632 46.132 173.643 46.744 173.643 47.424C173.666 48.104 173.677 48.9087 173.677 49.838C173.677 50.7447 173.677 51.8327 173.677 53.102ZM188.741 25.188H193.603C193.535 29.812 193.501 34.4473 193.501 39.094C193.501 43.7407 193.535 48.376 193.603 53H187.041L179.833 36.374V53H175.175C175.22 50.6653 175.254 48.3533 175.277 46.064C175.299 43.752 175.311 41.4287 175.311 39.094C175.311 36.7593 175.299 34.4473 175.277 32.158C175.254 29.846 175.22 27.5227 175.175 25.188H182.043L188.741 41.78V25.188ZM213.754 37.53V52.966C212.53 53.1247 211.442 53.2267 210.49 53.272C209.561 53.34 208.79 53.374 208.178 53.374C206.093 53.374 204.223 53.0453 202.568 52.388C200.913 51.7307 199.519 50.79 198.386 49.566C197.253 48.3193 196.38 46.8233 195.768 45.078C195.179 43.31 194.884 41.338 194.884 39.162C194.884 37.0767 195.167 35.1613 195.734 33.416C196.301 31.648 197.139 30.1293 198.25 28.86C199.383 27.568 200.789 26.5707 202.466 25.868C204.166 25.1427 206.127 24.78 208.348 24.78C209.3 24.78 210.116 24.848 210.796 24.984C211.499 25.0973 212.179 25.256 212.836 25.46C212.836 25.8227 212.836 26.2193 212.836 26.65C212.859 27.0807 212.87 27.5453 212.87 28.044C212.87 28.5427 212.859 29.0753 212.836 29.642C212.836 30.2087 212.836 30.7187 212.836 31.172C211.725 30.5827 210.456 30.288 209.028 30.288C207.781 30.288 206.739 30.5033 205.9 30.934C205.061 31.342 204.381 31.8747 203.86 32.532C203.361 33.1893 202.999 33.926 202.772 34.742C202.568 35.5353 202.466 36.306 202.466 37.054C202.466 37.9153 202.591 38.754 202.84 39.57C203.112 40.386 203.509 41.1113 204.03 41.746C204.551 42.3807 205.197 42.8907 205.968 43.276C206.761 43.6613 207.691 43.854 208.756 43.854C208.869 43.854 208.971 43.854 209.062 43.854C209.175 43.854 209.289 43.8427 209.402 43.82V37.53H213.754ZM217.765 43.378V37.87C217.765 36.4193 217.754 35.184 217.731 34.164C217.731 33.144 217.731 32.2033 217.731 31.342H215.215C215.193 30.8207 215.17 30.3107 215.147 29.812C215.125 29.3133 215.113 28.8033 215.113 28.282C215.113 27.7607 215.125 27.2393 215.147 26.718C215.17 26.1967 215.193 25.6867 215.215 25.188H225.687C225.71 25.7093 225.721 26.2307 225.721 26.752C225.721 27.2507 225.721 27.7607 225.721 28.282C225.721 28.8033 225.721 29.3133 225.721 29.812C225.721 30.3107 225.71 30.8207 225.687 31.342H223.205C223.16 32.8607 223.126 34.3567 223.103 35.83C223.103 37.3033 223.103 38.9467 223.103 40.76V43.378H225.687C225.71 44.194 225.721 44.9987 225.721 45.792C225.721 46.5853 225.721 47.39 225.721 48.206C225.721 48.9993 225.721 49.804 225.721 50.62C225.721 51.4133 225.71 52.2067 225.687 53H215.215C215.193 52.2067 215.17 51.4133 215.147 50.62C215.125 49.804 215.113 48.9993 215.113 48.206C215.113 47.39 215.125 46.5853 215.147 45.792C215.17 44.9987 215.193 44.194 215.215 43.378H217.765ZM240.969 25.188H245.831C245.763 29.812 245.729 34.4473 245.729 39.094C245.729 43.7407 245.763 48.376 245.831 53H239.269L232.061 36.374V53H227.403C227.449 50.6653 227.483 48.3533 227.505 46.064C227.528 43.752 227.539 41.4287 227.539 39.094C227.539 36.7593 227.528 34.4473 227.505 32.158C227.483 29.846 227.449 27.5227 227.403 25.188H234.271L240.969 41.78V25.188ZM260.304 53.102C259.67 53.0793 258.831 53.0567 257.788 53.034C256.746 53.034 255.624 53.0227 254.422 53C253.244 53 252.054 53 250.852 53C249.674 53 248.631 53 247.724 53C247.747 52.524 247.758 51.8893 247.758 51.096C247.781 50.3027 247.792 49.396 247.792 48.376C247.792 47.356 247.792 46.2567 247.792 45.078C247.792 43.8767 247.792 42.6413 247.792 41.372C247.792 39.6493 247.781 37.9267 247.758 36.204C247.758 34.4813 247.758 32.8833 247.758 31.41C247.758 29.914 247.747 28.622 247.724 27.534C247.724 26.446 247.724 25.6753 247.724 25.222C248.608 25.222 249.583 25.222 250.648 25.222C251.714 25.222 252.802 25.222 253.912 25.222C255.023 25.1993 256.111 25.1767 257.176 25.154C258.242 25.1313 259.239 25.1087 260.168 25.086C260.168 25.3807 260.168 25.6413 260.168 25.868C260.191 26.072 260.202 26.3667 260.202 26.752C260.202 27.024 260.191 27.3527 260.168 27.738C260.168 28.1007 260.157 28.486 260.134 28.894C260.134 29.2793 260.123 29.676 260.1 30.084C260.1 30.4693 260.089 30.832 260.066 31.172H253.232V35.116H259.182V40.182H253.232V43.99H260.168C260.191 44.5113 260.214 45.044 260.236 45.588C260.259 46.132 260.27 46.744 260.27 47.424C260.293 48.104 260.304 48.9087 260.304 49.838C260.304 50.7447 260.304 51.8327 260.304 53.102ZM274.416 53.102C273.781 53.0793 272.942 53.0567 271.9 53.034C270.857 53.034 269.735 53.0227 268.534 53C267.355 53 266.165 53 264.964 53C263.785 53 262.742 53 261.836 53C261.858 52.524 261.87 51.8893 261.87 51.096C261.892 50.3027 261.904 49.396 261.904 48.376C261.904 47.356 261.904 46.2567 261.904 45.078C261.904 43.8767 261.904 42.6413 261.904 41.372C261.904 39.6493 261.892 37.9267 261.87 36.204C261.87 34.4813 261.87 32.8833 261.87 31.41C261.87 29.914 261.858 28.622 261.836 27.534C261.836 26.446 261.836 25.6753 261.836 25.222C262.72 25.222 263.694 25.222 264.76 25.222C265.825 25.222 266.913 25.222 268.024 25.222C269.134 25.1993 270.222 25.1767 271.288 25.154C272.353 25.1313 273.35 25.1087 274.28 25.086C274.28 25.3807 274.28 25.6413 274.28 25.868C274.302 26.072 274.314 26.3667 274.314 26.752C274.314 27.024 274.302 27.3527 274.28 27.738C274.28 28.1007 274.268 28.486 274.246 28.894C274.246 29.2793 274.234 29.676 274.212 30.084C274.212 30.4693 274.2 30.832 274.178 31.172H267.344V35.116H273.294V40.182H267.344V43.99H274.28C274.302 44.5113 274.325 45.044 274.348 45.588C274.37 46.132 274.382 46.744 274.382 47.424C274.404 48.104 274.416 48.9087 274.416 49.838C274.416 50.7447 274.416 51.8327 274.416 53.102ZM275.913 53C275.981 50.8467 276.026 48.7047 276.049 46.574C276.072 44.4207 276.083 42.3807 276.083 40.454C276.083 37.7113 276.06 35.1047 276.015 32.634C275.992 30.1633 275.958 27.6813 275.913 25.188C277.024 25.0747 278.134 24.984 279.245 24.916C280.378 24.8253 281.523 24.78 282.679 24.78C284.334 24.78 285.886 24.9047 287.337 25.154C288.788 25.3807 290.046 25.8227 291.111 26.48C292.176 27.1147 293.015 27.9987 293.627 29.132C294.262 30.2653 294.579 31.7273 294.579 33.518C294.579 35.7393 294.114 37.4847 293.185 38.754C292.278 40.0233 291.043 40.9753 289.479 41.61L295.021 53H288.969L284.447 42.63C283.518 42.698 282.554 42.732 281.557 42.732C281.557 44.4773 281.568 46.1887 281.591 47.866C281.614 49.5433 281.682 51.2547 281.795 53H275.913ZM281.557 37.564C282.26 37.632 282.906 37.666 283.495 37.666C285.036 37.666 286.124 37.3827 286.759 36.816C287.416 36.2267 287.745 35.354 287.745 34.198C287.745 33.4953 287.643 32.9287 287.439 32.498C287.258 32.0673 286.997 31.7273 286.657 31.478C286.34 31.2287 285.954 31.0587 285.501 30.968C285.07 30.8773 284.606 30.832 284.107 30.832C283.744 30.832 283.336 30.8547 282.883 30.9C282.452 30.9227 282.01 30.968 281.557 31.036V37.564ZM298.383 43.378V37.87C298.383 36.4193 298.371 35.184 298.349 34.164C298.349 33.144 298.349 32.2033 298.349 31.342H295.833C295.81 30.8207 295.787 30.3107 295.765 29.812C295.742 29.3133 295.731 28.8033 295.731 28.282C295.731 27.7607 295.742 27.2393 295.765 26.718C295.787 26.1967 295.81 25.6867 295.833 25.188H306.305C306.327 25.7093 306.339 26.2307 306.339 26.752C306.339 27.2507 306.339 27.7607 306.339 28.282C306.339 28.8033 306.339 29.3133 306.339 29.812C306.339 30.3107 306.327 30.8207 306.305 31.342H303.823C303.777 32.8607 303.743 34.3567 303.721 35.83C303.721 37.3033 303.721 38.9467 303.721 40.76V43.378H306.305C306.327 44.194 306.339 44.9987 306.339 45.792C306.339 46.5853 306.339 47.39 306.339 48.206C306.339 48.9993 306.339 49.804 306.339 50.62C306.339 51.4133 306.327 52.2067 306.305 53H295.833C295.81 52.2067 295.787 51.4133 295.765 50.62C295.742 49.804 295.731 48.9993 295.731 48.206C295.731 47.39 295.742 46.5853 295.765 45.792C295.787 44.9987 295.81 44.194 295.833 43.378H298.383ZM321.587 25.188H326.449C326.381 29.812 326.347 34.4473 326.347 39.094C326.347 43.7407 326.381 48.376 326.449 53H319.887L312.679 36.374V53H308.021C308.066 50.6653 308.1 48.3533 308.123 46.064C308.145 43.752 308.157 41.4287 308.157 39.094C308.157 36.7593 308.145 34.4473 308.123 32.158C308.1 29.846 308.066 27.5227 308.021 25.188H314.889L321.587 41.78V25.188ZM346.6 37.53V52.966C345.376 53.1247 344.288 53.2267 343.336 53.272C342.406 53.34 341.636 53.374 341.024 53.374C338.938 53.374 337.068 53.0453 335.414 52.388C333.759 51.7307 332.365 50.79 331.232 49.566C330.098 48.3193 329.226 46.8233 328.614 45.078C328.024 43.31 327.73 41.338 327.73 39.162C327.73 37.0767 328.013 35.1613 328.58 33.416C329.146 31.648 329.985 30.1293 331.096 28.86C332.229 27.568 333.634 26.5707 335.312 25.868C337.012 25.1427 338.972 24.78 341.194 24.78C342.146 24.78 342.962 24.848 343.642 24.984C344.344 25.0973 345.024 25.256 345.682 25.46C345.682 25.8227 345.682 26.2193 345.682 26.65C345.704 27.0807 345.716 27.5453 345.716 28.044C345.716 28.5427 345.704 29.0753 345.682 29.642C345.682 30.2087 345.682 30.7187 345.682 31.172C344.571 30.5827 343.302 30.288 341.874 30.288C340.627 30.288 339.584 30.5033 338.746 30.934C337.907 31.342 337.227 31.8747 336.706 32.532C336.207 33.1893 335.844 33.926 335.618 34.742C335.414 35.5353 335.312 36.306 335.312 37.054C335.312 37.9153 335.436 38.754 335.686 39.57C335.958 40.386 336.354 41.1113 336.876 41.746C337.397 42.3807 338.043 42.8907 338.814 43.276C339.607 43.6613 340.536 43.854 341.602 43.854C341.715 43.854 341.817 43.854 341.908 43.854C342.021 43.854 342.134 43.8427 342.248 43.82V37.53H346.6ZM352.04 32.09C352.04 30.6393 352.312 29.4493 352.856 28.52C353.423 27.568 354.125 26.82 354.964 26.276C355.825 25.7093 356.766 25.324 357.786 25.12C358.829 24.8933 359.826 24.78 360.778 24.78C361.05 24.78 361.39 24.7913 361.798 24.814C362.229 24.8367 362.671 24.8707 363.124 24.916C363.6 24.9613 364.076 25.0293 364.552 25.12C365.051 25.188 365.515 25.29 365.946 25.426C365.991 26.0153 366.025 26.5707 366.048 27.092C366.071 27.5907 366.082 28.1687 366.082 28.826C366.082 29.4833 366.071 30.118 366.048 30.73C366.025 31.3193 365.991 31.886 365.946 32.43C365.765 32.4073 365.527 32.3733 365.232 32.328C364.96 32.2827 364.665 32.2487 364.348 32.226C364.053 32.2033 363.747 32.1807 363.43 32.158C363.135 32.1353 362.852 32.124 362.58 32.124C361.492 32.124 360.699 32.294 360.2 32.634C359.701 32.974 359.452 33.4387 359.452 34.028C359.452 34.368 359.531 34.6967 359.69 35.014C359.849 35.3087 360.053 35.592 360.302 35.864C360.574 36.136 360.869 36.3967 361.186 36.646C361.526 36.8953 361.866 37.1333 362.206 37.36C362.75 37.7453 363.294 38.176 363.838 38.652C364.405 39.1053 364.915 39.6607 365.368 40.318C365.821 40.9527 366.195 41.7007 366.49 42.562C366.785 43.4007 366.932 44.3753 366.932 45.486C366.932 46.9367 366.683 48.1607 366.184 49.158C365.685 50.1553 365.039 50.9713 364.246 51.606C363.475 52.218 362.603 52.6713 361.628 52.966C360.676 53.238 359.724 53.374 358.772 53.374C358.341 53.374 357.809 53.34 357.174 53.272C356.562 53.2267 355.939 53.1473 355.304 53.034C354.669 52.9433 354.069 52.83 353.502 52.694C352.935 52.5353 352.482 52.354 352.142 52.15C352.051 51.742 351.972 51.3227 351.904 50.892C351.859 50.4613 351.836 49.9853 351.836 49.464C351.836 49.1013 351.847 48.6593 351.87 48.138C351.915 47.6167 351.961 47.084 352.006 46.54C352.051 45.996 352.097 45.4747 352.142 44.976C352.21 44.4773 352.267 44.058 352.312 43.718C352.561 43.854 352.924 44.0127 353.4 44.194C353.876 44.3527 354.386 44.5113 354.93 44.67C355.497 44.8287 356.063 44.9647 356.63 45.078C357.197 45.1913 357.695 45.248 358.126 45.248C358.851 45.248 359.395 45.1007 359.758 44.806C360.121 44.4887 360.302 44.0693 360.302 43.548C360.302 42.9813 360.098 42.4827 359.69 42.052C359.282 41.5987 358.772 41.1567 358.16 40.726C357.548 40.2953 356.879 39.842 356.154 39.366C355.451 38.8673 354.794 38.2893 354.182 37.632C353.57 36.9747 353.06 36.204 352.652 35.32C352.244 34.4133 352.04 33.3367 352.04 32.09ZM386.345 25.154C386.39 28.4633 386.458 31.3307 386.549 33.756C386.639 36.1587 386.685 38.21 386.685 39.91C386.685 41.0207 386.651 42.1313 386.583 43.242C386.515 44.33 386.367 45.3727 386.141 46.37C385.914 47.3673 385.585 48.2967 385.155 49.158C384.747 49.9967 384.191 50.7333 383.489 51.368C382.809 52.0027 381.959 52.5013 380.939 52.864C379.919 53.204 378.706 53.374 377.301 53.374C375.85 53.374 374.603 53.1927 373.561 52.83C372.541 52.4447 371.679 51.9347 370.977 51.3C370.274 50.6653 369.707 49.9173 369.277 49.056C368.869 48.172 368.551 47.2313 368.325 46.234C368.098 45.2367 367.951 44.2053 367.883 43.14C367.815 42.0747 367.781 41.0093 367.781 39.944C367.781 39.1053 367.792 38.21 367.815 37.258C367.837 36.306 367.871 35.2407 367.917 34.062C367.962 32.8833 368.007 31.5687 368.053 30.118C368.121 28.6673 368.189 27.024 368.257 25.188H374.241C374.173 27.228 374.116 28.962 374.071 30.39C374.025 31.7953 373.98 32.974 373.935 33.926C373.912 34.878 373.889 35.6373 373.867 36.204C373.867 36.748 373.855 37.1673 373.833 37.462C373.833 37.7567 373.833 37.972 373.833 38.108C373.833 38.2213 373.833 38.312 373.833 38.38C373.833 40.5787 374.082 42.2333 374.581 43.344C375.079 44.4547 375.975 45.01 377.267 45.01C378.581 45.01 379.465 44.4093 379.919 43.208C380.395 42.0067 380.633 40.182 380.633 37.734C380.633 37.6207 380.633 37.496 380.633 37.36C380.633 37.2013 380.621 36.9633 380.599 36.646C380.599 36.3287 380.587 35.9093 380.565 35.388C380.565 34.844 380.542 34.13 380.497 33.246C380.474 32.3393 380.44 31.24 380.395 29.948C380.349 28.6333 380.293 27.0467 380.225 25.188L386.345 25.154ZM393.678 34.198C393.995 34.2433 394.256 34.266 394.46 34.266C394.664 34.266 394.879 34.266 395.106 34.266C396.33 34.266 397.304 34.0393 398.03 33.586C398.755 33.1327 399.118 32.532 399.118 31.784C399.118 31.104 398.8 30.5827 398.166 30.22C397.554 29.8573 396.647 29.676 395.446 29.676C395.06 29.676 394.709 29.6987 394.392 29.744C394.097 29.7667 393.859 29.812 393.678 29.88V34.198ZM388.34 53C388.362 51.9573 388.374 50.9487 388.374 49.974C388.396 48.9767 388.408 48.002 388.408 47.05C388.43 46.0753 388.442 45.1007 388.442 44.126C388.442 43.1513 388.442 42.1427 388.442 41.1C388.442 38.1307 388.419 35.286 388.374 32.566C388.351 29.846 388.294 27.4207 388.204 25.29C389.473 25.1087 390.776 24.984 392.114 24.916C393.451 24.8253 394.652 24.78 395.718 24.78C402.019 24.78 405.17 26.6047 405.17 30.254C405.17 31.682 404.75 32.906 403.912 33.926C403.096 34.9233 402.008 35.5353 400.648 35.762C402.846 36.17 404.456 37.02 405.476 38.312C406.496 39.5813 407.006 41.3833 407.006 43.718C407.006 47.0047 405.986 49.4413 403.946 51.028C401.906 52.592 398.732 53.374 394.426 53.374C393.587 53.374 392.646 53.34 391.604 53.272C390.584 53.2267 389.496 53.136 388.34 53ZM393.678 43.854C393.904 43.922 394.244 43.9787 394.698 44.024C395.151 44.0693 395.593 44.092 396.024 44.092C397.452 44.092 398.528 43.8653 399.254 43.412C400.002 42.9587 400.376 42.3127 400.376 41.474C400.376 40.6127 399.979 39.9553 399.186 39.502C398.415 39.0487 397.338 38.822 395.956 38.822C395.661 38.822 395.332 38.8333 394.97 38.856C394.63 38.8787 394.199 38.9127 393.678 38.958V43.854ZM424.855 35.966L420.469 51.81H417.307L413.193 36.408C413.216 39.1733 413.261 41.9613 413.329 44.772C413.42 47.5827 413.488 50.3253 413.533 53H408.161C408.206 50.6653 408.24 48.3533 408.263 46.064C408.286 43.752 408.297 41.4287 408.297 39.094C408.297 36.7593 408.286 34.4473 408.263 32.158C408.24 29.846 408.206 27.5227 408.161 25.188H415.437L419.041 41.134L423.087 25.188H429.955C429.887 29.812 429.853 34.4473 429.853 39.094C429.853 43.7407 429.887 48.376 429.955 53H424.515L424.855 35.966ZM434.283 43.378V37.87C434.283 36.4193 434.272 35.184 434.249 34.164C434.249 33.144 434.249 32.2033 434.249 31.342H431.733C431.71 30.8207 431.688 30.3107 431.665 29.812C431.642 29.3133 431.631 28.8033 431.631 28.282C431.631 27.7607 431.642 27.2393 431.665 26.718C431.688 26.1967 431.71 25.6867 431.733 25.188H442.205C442.228 25.7093 442.239 26.2307 442.239 26.752C442.239 27.2507 442.239 27.7607 442.239 28.282C442.239 28.8033 442.239 29.3133 442.239 29.812C442.239 30.3107 442.228 30.8207 442.205 31.342H439.723C439.678 32.8607 439.644 34.3567 439.621 35.83C439.621 37.3033 439.621 38.9467 439.621 40.76V43.378H442.205C442.228 44.194 442.239 44.9987 442.239 45.792C442.239 46.5853 442.239 47.39 442.239 48.206C442.239 48.9993 442.239 49.804 442.239 50.62C442.239 51.4133 442.228 52.2067 442.205 53H431.733C431.71 52.2067 431.688 51.4133 431.665 50.62C431.642 49.804 431.631 48.9993 431.631 48.206C431.631 47.39 431.642 46.5853 431.665 45.792C431.688 44.9987 431.71 44.194 431.733 43.378H434.283ZM443.581 32.09C443.581 30.6393 443.853 29.4493 444.397 28.52C444.964 27.568 445.666 26.82 446.505 26.276C447.366 25.7093 448.307 25.324 449.327 25.12C450.37 24.8933 451.367 24.78 452.319 24.78C452.591 24.78 452.931 24.7913 453.339 24.814C453.77 24.8367 454.212 24.8707 454.665 24.916C455.141 24.9613 455.617 25.0293 456.093 25.12C456.592 25.188 457.056 25.29 457.487 25.426C457.532 26.0153 457.566 26.5707 457.589 27.092C457.612 27.5907 457.623 28.1687 457.623 28.826C457.623 29.4833 457.612 30.118 457.589 30.73C457.566 31.3193 457.532 31.886 457.487 32.43C457.306 32.4073 457.068 32.3733 456.773 32.328C456.501 32.2827 456.206 32.2487 455.889 32.226C455.594 32.2033 455.288 32.1807 454.971 32.158C454.676 32.1353 454.393 32.124 454.121 32.124C453.033 32.124 452.24 32.294 451.741 32.634C451.242 32.974 450.993 33.4387 450.993 34.028C450.993 34.368 451.072 34.6967 451.231 35.014C451.39 35.3087 451.594 35.592 451.843 35.864C452.115 36.136 452.41 36.3967 452.727 36.646C453.067 36.8953 453.407 37.1333 453.747 37.36C454.291 37.7453 454.835 38.176 455.379 38.652C455.946 39.1053 456.456 39.6607 456.909 40.318C457.362 40.9527 457.736 41.7007 458.031 42.562C458.326 43.4007 458.473 44.3753 458.473 45.486C458.473 46.9367 458.224 48.1607 457.725 49.158C457.226 50.1553 456.58 50.9713 455.787 51.606C455.016 52.218 454.144 52.6713 453.169 52.966C452.217 53.238 451.265 53.374 450.313 53.374C449.882 53.374 449.35 53.34 448.715 53.272C448.103 53.2267 447.48 53.1473 446.845 53.034C446.21 52.9433 445.61 52.83 445.043 52.694C444.476 52.5353 444.023 52.354 443.683 52.15C443.592 51.742 443.513 51.3227 443.445 50.892C443.4 50.4613 443.377 49.9853 443.377 49.464C443.377 49.1013 443.388 48.6593 443.411 48.138C443.456 47.6167 443.502 47.084 443.547 46.54C443.592 45.996 443.638 45.4747 443.683 44.976C443.751 44.4773 443.808 44.058 443.853 43.718C444.102 43.854 444.465 44.0127 444.941 44.194C445.417 44.3527 445.927 44.5113 446.471 44.67C447.038 44.8287 447.604 44.9647 448.171 45.078C448.738 45.1913 449.236 45.248 449.667 45.248C450.392 45.248 450.936 45.1007 451.299 44.806C451.662 44.4887 451.843 44.0693 451.843 43.548C451.843 42.9813 451.639 42.4827 451.231 42.052C450.823 41.5987 450.313 41.1567 449.701 40.726C449.089 40.2953 448.42 39.842 447.695 39.366C446.992 38.8673 446.335 38.2893 445.723 37.632C445.111 36.9747 444.601 36.204 444.193 35.32C443.785 34.4133 443.581 33.3367 443.581 32.09ZM459.22 32.09C459.22 30.6393 459.492 29.4493 460.036 28.52C460.602 27.568 461.305 26.82 462.144 26.276C463.005 25.7093 463.946 25.324 464.966 25.12C466.008 24.8933 467.006 24.78 467.958 24.78C468.23 24.78 468.57 24.7913 468.978 24.814C469.408 24.8367 469.85 24.8707 470.304 24.916C470.78 24.9613 471.256 25.0293 471.732 25.12C472.23 25.188 472.695 25.29 473.126 25.426C473.171 26.0153 473.205 26.5707 473.228 27.092C473.25 27.5907 473.262 28.1687 473.262 28.826C473.262 29.4833 473.25 30.118 473.228 30.73C473.205 31.3193 473.171 31.886 473.126 32.43C472.944 32.4073 472.706 32.3733 472.412 32.328C472.14 32.2827 471.845 32.2487 471.528 32.226C471.233 32.2033 470.927 32.1807 470.61 32.158C470.315 32.1353 470.032 32.124 469.76 32.124C468.672 32.124 467.878 32.294 467.38 32.634C466.881 32.974 466.632 33.4387 466.632 34.028C466.632 34.368 466.711 34.6967 466.87 35.014C467.028 35.3087 467.232 35.592 467.482 35.864C467.754 36.136 468.048 36.3967 468.366 36.646C468.706 36.8953 469.046 37.1333 469.386 37.36C469.93 37.7453 470.474 38.176 471.018 38.652C471.584 39.1053 472.094 39.6607 472.548 40.318C473.001 40.9527 473.375 41.7007 473.67 42.562C473.964 43.4007 474.112 44.3753 474.112 45.486C474.112 46.9367 473.862 48.1607 473.364 49.158C472.865 50.1553 472.219 50.9713 471.426 51.606C470.655 52.218 469.782 52.6713 468.808 52.966C467.856 53.238 466.904 53.374 465.952 53.374C465.521 53.374 464.988 53.34 464.354 53.272C463.742 53.2267 463.118 53.1473 462.484 53.034C461.849 52.9433 461.248 52.83 460.682 52.694C460.115 52.5353 459.662 52.354 459.322 52.15C459.231 51.742 459.152 51.3227 459.084 50.892C459.038 50.4613 459.016 49.9853 459.016 49.464C459.016 49.1013 459.027 48.6593 459.05 48.138C459.095 47.6167 459.14 47.084 459.186 46.54C459.231 45.996 459.276 45.4747 459.322 44.976C459.39 44.4773 459.446 44.058 459.492 43.718C459.741 43.854 460.104 44.0127 460.58 44.194C461.056 44.3527 461.566 44.5113 462.11 44.67C462.676 44.8287 463.243 44.9647 463.81 45.078C464.376 45.1913 464.875 45.248 465.306 45.248C466.031 45.248 466.575 45.1007 466.938 44.806C467.3 44.4887 467.482 44.0693 467.482 43.548C467.482 42.9813 467.278 42.4827 466.87 42.052C466.462 41.5987 465.952 41.1567 465.34 40.726C464.728 40.2953 464.059 39.842 463.334 39.366C462.631 38.8673 461.974 38.2893 461.362 37.632C460.75 36.9747 460.24 36.204 459.832 35.32C459.424 34.4133 459.22 33.3367 459.22 32.09ZM477.646 43.378V37.87C477.646 36.4193 477.635 35.184 477.612 34.164C477.612 33.144 477.612 32.2033 477.612 31.342H475.096C475.074 30.8207 475.051 30.3107 475.028 29.812C475.006 29.3133 474.994 28.8033 474.994 28.282C474.994 27.7607 475.006 27.2393 475.028 26.718C475.051 26.1967 475.074 25.6867 475.096 25.188H485.568C485.591 25.7093 485.602 26.2307 485.602 26.752C485.602 27.2507 485.602 27.7607 485.602 28.282C485.602 28.8033 485.602 29.3133 485.602 29.812C485.602 30.3107 485.591 30.8207 485.568 31.342H483.086C483.041 32.8607 483.007 34.3567 482.984 35.83C482.984 37.3033 482.984 38.9467 482.984 40.76V43.378H485.568C485.591 44.194 485.602 44.9987 485.602 45.792C485.602 46.5853 485.602 47.39 485.602 48.206C485.602 48.9993 485.602 49.804 485.602 50.62C485.602 51.4133 485.591 52.2067 485.568 53H475.096C475.074 52.2067 475.051 51.4133 475.028 50.62C475.006 49.804 474.994 48.9993 474.994 48.206C474.994 47.39 475.006 46.5853 475.028 45.792C475.051 44.9987 475.074 44.194 475.096 43.378H477.646ZM496.437 24.78C499.814 24.78 502.307 25.9813 503.917 28.384C505.526 30.7867 506.331 34.2773 506.331 38.856C506.331 43.5027 505.537 47.084 503.951 49.6C502.387 52.116 499.882 53.374 496.437 53.374C494.737 53.374 493.263 53.0567 492.017 52.422C490.77 51.7647 489.739 50.824 488.923 49.6C488.107 48.3533 487.506 46.8347 487.121 45.044C486.735 43.2307 486.543 41.168 486.543 38.856C486.543 34.2093 487.347 30.7073 488.957 28.35C490.566 25.97 493.059 24.78 496.437 24.78ZM496.437 44.602C497.162 44.602 497.797 44.4433 498.341 44.126C498.907 43.786 499.372 43.3327 499.735 42.766C500.097 42.1767 500.369 41.4853 500.551 40.692C500.732 39.876 500.823 38.9807 500.823 38.006C500.823 37.0313 500.732 36.136 500.551 35.32C500.369 34.4813 500.097 33.756 499.735 33.144C499.372 32.532 498.907 32.056 498.341 31.716C497.797 31.376 497.162 31.206 496.437 31.206C495.711 31.206 495.077 31.3873 494.533 31.75C494.011 32.09 493.558 32.566 493.173 33.178C492.81 33.79 492.538 34.5153 492.357 35.354C492.175 36.17 492.085 37.054 492.085 38.006C492.085 38.9807 492.175 39.876 492.357 40.692C492.538 41.4853 492.81 42.1767 493.173 42.766C493.558 43.3327 494.011 43.786 494.533 44.126C495.077 44.4433 495.711 44.602 496.437 44.602ZM521.27 25.188H526.132C526.064 29.812 526.03 34.4473 526.03 39.094C526.03 43.7407 526.064 48.376 526.132 53H519.57L512.362 36.374V53H507.704C507.749 50.6653 507.783 48.3533 507.806 46.064C507.829 43.752 507.84 41.4287 507.84 39.094C507.84 36.7593 507.829 34.4473 507.806 32.158C507.783 29.846 507.749 27.5227 507.704 25.188H514.572L521.27 41.78V25.188Z" fill="white"/>
</g>
<defs>
<filter id="filter0_d_126_1126" x="0.1" y="0.5" width="561.8" height="106.4" filterUnits="userSpaceOnUse" color-interpolation-filters="sRGB">
<feFlood flood-opacity="0" result="BackgroundImageFix"/>
<feColorMatrix in="SourceAlpha" type="matrix" values="0 0 0 0 0 0 0 0 0 0 0 0 0 0 0 0 0 0 127 0" result="hardAlpha"/>
<feOffset dy="16"/>
<feGaussianBlur stdDeviation="6.45"/>
<feComposite in2="hardAlpha" operator="out"/>
<feColorMatrix type="matrix" values="0 0 0 0 0 0 0 0 0 0 0 0 0 0 0 0 0 0 0.25 0"/>
<feBlend mode="normal" in2="BackgroundImageFix" result="effect1_dropShadow_126_1126"/>
<feBlend mode="normal" in="SourceGraphic" in2="effect1_dropShadow_126_1126" result="shape"/>
</filter>
</defs>
</svg>
