<svg width="370" height="101" viewBox="0 0 370 101" fill="none" xmlns="http://www.w3.org/2000/svg">
<g filter="url(#filter0_d_126_1126)">
<rect x="14.5" y="2" width="341" height="68" rx="26.5" fill="#FF8000" stroke="black" stroke-width="3"/>
<path d="M64.6932 51.1816C64.7732 48.6483 64.8265 46.1283 64.8532 43.6216C64.8799 41.0883 64.8932 38.6883 64.8932 36.4216C64.8932 33.195 64.8665 30.1283 64.8132 27.2216C64.7865 24.315 64.7465 21.395 64.6932 18.4616C65.9999 18.3283 67.3065 18.2216 68.6132 18.1416C69.9465 18.035 71.2932 17.9816 72.6532 17.9816C74.5999 17.9816 76.4265 18.1283 78.1332 18.4216C79.8399 18.6883 81.3199 19.2083 82.5732 19.9816C83.8265 20.7283 84.8132 21.7683 85.5332 23.1016C86.2799 24.435 86.6532 26.155 86.6532 28.2616C86.6532 30.875 86.1065 32.9283 85.0132 34.4216C83.9465 35.915 82.4932 37.035 80.6532 37.7816L87.1732 51.1816H80.0532L74.7332 38.9816C73.6399 39.0616 72.5065 39.1016 71.3332 39.1016C71.3332 41.155 71.3465 43.1683 71.3732 45.1416C71.3999 47.115 71.4799 49.1283 71.6132 51.1816H64.6932ZM71.3332 33.0216C72.1599 33.1016 72.9199 33.1416 73.6132 33.1416C75.4265 33.1416 76.7065 32.8083 77.4532 32.1416C78.2265 31.4483 78.6132 30.4216 78.6132 29.0616C78.6132 28.235 78.4932 27.5683 78.2532 27.0616C78.0399 26.555 77.7332 26.155 77.3332 25.8616C76.9599 25.5683 76.5065 25.3683 75.9732 25.2616C75.4665 25.155 74.9199 25.1016 74.3332 25.1016C73.9065 25.1016 73.4265 25.1283 72.8932 25.1816C72.3865 25.2083 71.8665 25.2616 71.3332 25.3416V33.0216ZM103.088 51.3016C102.341 51.275 101.355 51.2483 100.128 51.2216C98.9012 51.2216 97.5812 51.2083 96.1679 51.1816C94.7812 51.1816 93.3812 51.1816 91.9679 51.1816C90.5812 51.1816 89.3545 51.1816 88.2879 51.1816C88.3145 50.6216 88.3279 49.875 88.3279 48.9416C88.3545 48.0083 88.3679 46.9416 88.3679 45.7416C88.3679 44.5416 88.3679 43.2483 88.3679 41.8616C88.3679 40.4483 88.3679 38.995 88.3679 37.5016C88.3679 35.475 88.3545 33.4483 88.3279 31.4216C88.3279 29.395 88.3279 27.515 88.3279 25.7816C88.3279 24.0216 88.3145 22.5016 88.2879 21.2216C88.2879 19.9416 88.2879 19.035 88.2879 18.5016C89.3279 18.5016 90.4745 18.5016 91.7279 18.5016C92.9812 18.5016 94.2612 18.5016 95.5679 18.5016C96.8745 18.475 98.1545 18.4483 99.4079 18.4216C100.661 18.395 101.835 18.3683 102.928 18.3416C102.928 18.6883 102.928 18.995 102.928 19.2616C102.955 19.5016 102.968 19.8483 102.968 20.3016C102.968 20.6216 102.955 21.0083 102.928 21.4616C102.928 21.8883 102.915 22.3416 102.888 22.8216C102.888 23.275 102.875 23.7416 102.848 24.2216C102.848 24.675 102.835 25.1016 102.808 25.5016H94.7679V30.1416H101.768V36.1016H94.7679V40.5816H102.928C102.955 41.195 102.981 41.8216 103.008 42.4616C103.035 43.1016 103.048 43.8216 103.048 44.6216C103.075 45.4216 103.088 46.3683 103.088 47.4616C103.088 48.5283 103.088 49.8083 103.088 51.3016ZM126.018 32.9816V51.1416C124.578 51.3283 123.298 51.4483 122.178 51.5016C121.085 51.5816 120.178 51.6216 119.458 51.6216C117.005 51.6216 114.805 51.235 112.858 50.4616C110.911 49.6883 109.271 48.5816 107.938 47.1416C106.605 45.675 105.578 43.915 104.858 41.8616C104.165 39.7816 103.818 37.4616 103.818 34.9016C103.818 32.4483 104.151 30.195 104.818 28.1416C105.485 26.0616 106.471 24.275 107.778 22.7816C109.111 21.2616 110.765 20.0883 112.738 19.2616C114.738 18.4083 117.045 17.9816 119.658 17.9816C120.778 17.9816 121.738 18.0616 122.538 18.2216C123.365 18.355 124.165 18.5416 124.938 18.7816C124.938 19.2083 124.938 19.675 124.938 20.1816C124.965 20.6883 124.978 21.235 124.978 21.8216C124.978 22.4083 124.965 23.035 124.938 23.7016C124.938 24.3683 124.938 24.9683 124.938 25.5016C123.631 24.8083 122.138 24.4616 120.458 24.4616C118.991 24.4616 117.765 24.715 116.778 25.2216C115.791 25.7016 114.991 26.3283 114.378 27.1016C113.791 27.875 113.365 28.7416 113.098 29.7016C112.858 30.635 112.738 31.5416 112.738 32.4216C112.738 33.435 112.885 34.4216 113.178 35.3816C113.498 36.3416 113.965 37.195 114.578 37.9416C115.191 38.6883 115.951 39.2883 116.858 39.7416C117.791 40.195 118.885 40.4216 120.138 40.4216C120.271 40.4216 120.391 40.4216 120.498 40.4216C120.631 40.4216 120.765 40.4083 120.898 40.3816V32.9816H126.018ZM130.737 39.8616V33.3816C130.737 31.675 130.724 30.2216 130.697 29.0216C130.697 27.8216 130.697 26.715 130.697 25.7016H127.737C127.711 25.0883 127.684 24.4883 127.657 23.9016C127.631 23.315 127.617 22.715 127.617 22.1016C127.617 21.4883 127.631 20.875 127.657 20.2616C127.684 19.6483 127.711 19.0483 127.737 18.4616H140.057C140.084 19.075 140.097 19.6883 140.097 20.3016C140.097 20.8883 140.097 21.4883 140.097 22.1016C140.097 22.715 140.097 23.315 140.097 23.9016C140.097 24.4883 140.084 25.0883 140.057 25.7016H137.137C137.084 27.4883 137.044 29.2483 137.017 30.9816C137.017 32.715 137.017 34.6483 137.017 36.7816V39.8616H140.057C140.084 40.8216 140.097 41.7683 140.097 42.7016C140.097 43.635 140.097 44.5816 140.097 45.5416C140.097 46.475 140.097 47.4216 140.097 48.3816C140.097 49.315 140.084 50.2483 140.057 51.1816H127.737C127.711 50.2483 127.684 49.315 127.657 48.3816C127.631 47.4216 127.617 46.475 127.617 45.5416C127.617 44.5816 127.631 43.635 127.657 42.7016C127.684 41.7683 127.711 40.8216 127.737 39.8616H130.737ZM141.676 26.5816C141.676 24.875 141.996 23.475 142.636 22.3816C143.303 21.2616 144.129 20.3816 145.116 19.7416C146.129 19.075 147.236 18.6216 148.436 18.3816C149.663 18.115 150.836 17.9816 151.956 17.9816C152.276 17.9816 152.676 17.995 153.156 18.0216C153.663 18.0483 154.183 18.0883 154.716 18.1416C155.276 18.195 155.836 18.275 156.396 18.3816C156.983 18.4616 157.529 18.5816 158.036 18.7416C158.089 19.435 158.129 20.0883 158.156 20.7016C158.183 21.2883 158.196 21.9683 158.196 22.7416C158.196 23.515 158.183 24.2616 158.156 24.9816C158.129 25.675 158.089 26.3416 158.036 26.9816C157.823 26.955 157.543 26.915 157.196 26.8616C156.876 26.8083 156.529 26.7683 156.156 26.7416C155.809 26.715 155.449 26.6883 155.076 26.6616C154.729 26.635 154.396 26.6216 154.076 26.6216C152.796 26.6216 151.863 26.8216 151.276 27.2216C150.689 27.6216 150.396 28.1683 150.396 28.8616C150.396 29.2616 150.489 29.6483 150.676 30.0216C150.863 30.3683 151.103 30.7016 151.396 31.0216C151.716 31.3416 152.063 31.6483 152.436 31.9416C152.836 32.235 153.236 32.515 153.636 32.7816C154.276 33.235 154.916 33.7416 155.556 34.3016C156.223 34.835 156.823 35.4883 157.356 36.2616C157.889 37.0083 158.329 37.8883 158.676 38.9016C159.023 39.8883 159.196 41.035 159.196 42.3416C159.196 44.0483 158.903 45.4883 158.316 46.6616C157.729 47.835 156.969 48.795 156.036 49.5416C155.129 50.2616 154.103 50.795 152.956 51.1416C151.836 51.4616 150.716 51.6216 149.596 51.6216C149.089 51.6216 148.463 51.5816 147.716 51.5016C146.996 51.4483 146.263 51.355 145.516 51.2216C144.769 51.115 144.063 50.9816 143.396 50.8216C142.729 50.635 142.196 50.4216 141.796 50.1816C141.689 49.7016 141.596 49.2083 141.516 48.7016C141.463 48.195 141.436 47.635 141.436 47.0216C141.436 46.595 141.449 46.075 141.476 45.4616C141.529 44.8483 141.583 44.2216 141.636 43.5816C141.689 42.9416 141.743 42.3283 141.796 41.7416C141.876 41.155 141.943 40.6616 141.996 40.2616C142.289 40.4216 142.716 40.6083 143.276 40.8216C143.836 41.0083 144.436 41.195 145.076 41.3816C145.743 41.5683 146.409 41.7283 147.076 41.8616C147.743 41.995 148.329 42.0616 148.836 42.0616C149.689 42.0616 150.329 41.8883 150.756 41.5416C151.183 41.1683 151.396 40.675 151.396 40.0616C151.396 39.395 151.156 38.8083 150.676 38.3016C150.196 37.7683 149.596 37.2483 148.876 36.7416C148.156 36.235 147.369 35.7016 146.516 35.1416C145.689 34.555 144.916 33.875 144.196 33.1016C143.476 32.3283 142.876 31.4216 142.396 30.3816C141.916 29.315 141.676 28.0483 141.676 26.5816ZM175.714 25.8616H171.114C171.061 28.235 171.021 30.6483 170.994 33.1016C170.968 35.5283 170.954 38.155 170.954 40.9816C170.954 42.795 170.954 44.2616 170.954 45.3816C170.954 46.475 170.954 47.3816 170.954 48.1016C170.954 48.795 170.954 49.3683 170.954 49.8216C170.981 50.2483 170.994 50.7016 170.994 51.1816H164.274C164.301 50.0083 164.328 48.795 164.354 47.5416C164.381 46.2616 164.394 44.8883 164.394 43.4216C164.421 41.9283 164.434 40.3283 164.434 38.6216C164.461 36.8883 164.474 34.9816 164.474 32.9016C164.474 31.3816 164.474 30.0616 164.474 28.9416C164.474 27.8216 164.461 26.795 164.434 25.8616H159.834V18.4616H175.714V25.8616ZM192.072 51.3016C191.326 51.275 190.339 51.2483 189.112 51.2216C187.886 51.2216 186.566 51.2083 185.152 51.1816C183.766 51.1816 182.366 51.1816 180.952 51.1816C179.566 51.1816 178.339 51.1816 177.272 51.1816C177.299 50.6216 177.312 49.875 177.312 48.9416C177.339 48.0083 177.352 46.9416 177.352 45.7416C177.352 44.5416 177.352 43.2483 177.352 41.8616C177.352 40.4483 177.352 38.995 177.352 37.5016C177.352 35.475 177.339 33.4483 177.312 31.4216C177.312 29.395 177.312 27.515 177.312 25.7816C177.312 24.0216 177.299 22.5016 177.272 21.2216C177.272 19.9416 177.272 19.035 177.272 18.5016C178.312 18.5016 179.459 18.5016 180.712 18.5016C181.966 18.5016 183.246 18.5016 184.552 18.5016C185.859 18.475 187.139 18.4483 188.392 18.4216C189.646 18.395 190.819 18.3683 191.912 18.3416C191.912 18.6883 191.912 18.995 191.912 19.2616C191.939 19.5016 191.952 19.8483 191.952 20.3016C191.952 20.6216 191.939 21.0083 191.912 21.4616C191.912 21.8883 191.899 22.3416 191.872 22.8216C191.872 23.275 191.859 23.7416 191.832 24.2216C191.832 24.675 191.819 25.1016 191.792 25.5016H183.752V30.1416H190.752V36.1016H183.752V40.5816H191.912C191.939 41.195 191.966 41.8216 191.992 42.4616C192.019 43.1016 192.032 43.8216 192.032 44.6216C192.059 45.4216 192.072 46.3683 192.072 47.4616C192.072 48.5283 192.072 49.8083 192.072 51.3016ZM193.834 51.1816C193.914 48.6483 193.967 46.1283 193.994 43.6216C194.02 41.0883 194.034 38.6883 194.034 36.4216C194.034 33.195 194.007 30.1283 193.954 27.2216C193.927 24.315 193.887 21.395 193.834 18.4616C195.14 18.3283 196.447 18.2216 197.754 18.1416C199.087 18.035 200.434 17.9816 201.794 17.9816C203.74 17.9816 205.567 18.1283 207.274 18.4216C208.98 18.6883 210.46 19.2083 211.714 19.9816C212.967 20.7283 213.954 21.7683 214.674 23.1016C215.42 24.435 215.794 26.155 215.794 28.2616C215.794 30.875 215.247 32.9283 214.154 34.4216C213.087 35.915 211.634 37.035 209.794 37.7816L216.314 51.1816H209.194L203.874 38.9816C202.78 39.0616 201.647 39.1016 200.474 39.1016C200.474 41.155 200.487 43.1683 200.514 45.1416C200.54 47.115 200.62 49.1283 200.754 51.1816H193.834ZM200.474 33.0216C201.3 33.1016 202.06 33.1416 202.754 33.1416C204.567 33.1416 205.847 32.8083 206.594 32.1416C207.367 31.4483 207.754 30.4216 207.754 29.0616C207.754 28.235 207.634 27.5683 207.394 27.0616C207.18 26.555 206.874 26.155 206.474 25.8616C206.1 25.5683 205.647 25.3683 205.114 25.2616C204.607 25.155 204.06 25.1016 203.474 25.1016C203.047 25.1016 202.567 25.1283 202.034 25.1816C201.527 25.2083 201.007 25.2616 200.474 25.3416V33.0216ZM243.27 18.4616H248.99C248.91 23.9016 248.87 29.355 248.87 34.8216C248.87 40.2883 248.91 45.7416 248.99 51.1816H241.27L232.79 31.6216V51.1816H227.31C227.364 48.435 227.404 45.715 227.43 43.0216C227.457 40.3016 227.47 37.5683 227.47 34.8216C227.47 32.075 227.457 29.355 227.43 26.6616C227.404 23.9416 227.364 21.2083 227.31 18.4616H235.39L243.27 37.9816V18.4616ZM262.258 17.9816C266.231 17.9816 269.164 19.395 271.058 22.2216C272.951 25.0483 273.898 29.155 273.898 34.5416C273.898 40.0083 272.964 44.2216 271.098 47.1816C269.258 50.1416 266.311 51.6216 262.258 51.6216C260.258 51.6216 258.524 51.2483 257.058 50.5016C255.591 49.7283 254.378 48.6216 253.418 47.1816C252.458 45.715 251.751 43.9283 251.298 41.8216C250.844 39.6883 250.618 37.2616 250.618 34.5416C250.618 29.075 251.564 24.955 253.458 22.1816C255.351 19.3816 258.284 17.9816 262.258 17.9816ZM262.258 41.3016C263.111 41.3016 263.858 41.115 264.498 40.7416C265.164 40.3416 265.711 39.8083 266.138 39.1416C266.564 38.4483 266.884 37.635 267.098 36.7016C267.311 35.7416 267.418 34.6883 267.418 33.5416C267.418 32.395 267.311 31.3416 267.098 30.3816C266.884 29.395 266.564 28.5416 266.138 27.8216C265.711 27.1016 265.164 26.5416 264.498 26.1416C263.858 25.7416 263.111 25.5416 262.258 25.5416C261.404 25.5416 260.658 25.755 260.018 26.1816C259.404 26.5816 258.871 27.1416 258.418 27.8616C257.991 28.5816 257.671 29.435 257.458 30.4216C257.244 31.3816 257.138 32.4216 257.138 33.5416C257.138 34.6883 257.244 35.7416 257.458 36.7016C257.671 37.635 257.991 38.4483 258.418 39.1416C258.871 39.8083 259.404 40.3416 260.018 40.7416C260.658 41.115 261.404 41.3016 262.258 41.3016ZM299.686 18.4616H306.326L301.446 51.1816H293.566L290.086 33.6616L286.606 51.1816H278.926L273.886 18.4616H280.526L283.046 40.8216L287.606 18.7416L292.726 18.5016L297.246 40.8216L299.686 18.4616Z" fill="white"/>
</g>
<defs>
<filter id="filter0_d_126_1126" x="0.1" y="0.5" width="369.8" height="99.9" filterUnits="userSpaceOnUse" color-interpolation-filters="sRGB">
<feFlood flood-opacity="0" result="BackgroundImageFix"/>
<feColorMatrix in="SourceAlpha" type="matrix" values="0 0 0 0 0 0 0 0 0 0 0 0 0 0 0 0 0 0 127 0" result="hardAlpha"/>
<feOffset dy="16"/>
<feGaussianBlur stdDeviation="6.45"/>
<feComposite in2="hardAlpha" operator="out"/>
<feColorMatrix type="matrix" values="0 0 0 0 0 0 0 0 0 0 0 0 0 0 0 0 0 0 0.25 0"/>
<feBlend mode="normal" in2="BackgroundImageFix" result="effect1_dropShadow_126_1126"/>
<feBlend mode="normal" in="SourceGraphic" in2="effect1_dropShadow_126_1126" result="shape"/>
</filter>
</defs>
</svg>
